solid OpenSCAD_Model
  facet normal -0 0 -1
    outer loop
      vertex -13.25 0 -12
      vertex -12.7985 3.42935 -12
      vertex -12.7985 -3.42935 -12
    endloop
  endfacet
  facet normal 0 -0 -1
    outer loop
      vertex -12.7985 -3.42935 -12
      vertex -12.7985 3.42935 -12
      vertex -11.4748 6.625 -12
    endloop
  endfacet
  facet normal 0 -0 -1
    outer loop
      vertex -10.5 7.5 -12
      vertex -11.4748 6.625 -12
      vertex -9.36916 9.36916 -12
    endloop
  endfacet
  facet normal 0 0 -1
    outer loop
      vertex -6.5 7.5 -12
      vertex -3.42935 12.7985 -12
      vertex 0 13.25 -12
    endloop
  endfacet
  facet normal 0 -0 -1
    outer loop
      vertex -6.5 7.5 -12
      vertex -6.625 11.4748 -12
      vertex -3.42935 12.7985 -12
    endloop
  endfacet
  facet normal -0 -0 -1
    outer loop
      vertex 10.5 7.5 -12
      vertex 9.36916 9.36916 -12
      vertex 11.4748 6.625 -12
    endloop
  endfacet
  facet normal -0 0 -1
    outer loop
      vertex 10.5 -7.5 -12
      vertex 11.4748 -6.625 -12
      vertex 9.36916 -9.36916 -12
    endloop
  endfacet
  facet normal 0 0 -1
    outer loop
      vertex -6.5 7.5 -12
      vertex 3.42935 -12.7985 -12
      vertex -6.5 -7.5 -12
    endloop
  endfacet
  facet normal 0 0 -1
    outer loop
      vertex -6.5 7.5 -12
      vertex 6.625 -11.4748 -12
      vertex 3.42935 -12.7985 -12
    endloop
  endfacet
  facet normal 0 0 -1
    outer loop
      vertex -6.5 -7.5 -12
      vertex 3.42935 -12.7985 -12
      vertex 0 -13.25 -12
    endloop
  endfacet
  facet normal 0 0 -1
    outer loop
      vertex 10.5 7.5 -12
      vertex 12.7985 3.42935 -12
      vertex 13.25 0 -12
    endloop
  endfacet
  facet normal 0 0 -1
    outer loop
      vertex -6.5 -7.5 -12
      vertex -9.36916 -9.36916 -12
      vertex -10.5 -7.5 -12
    endloop
  endfacet
  facet normal 0 0 -1
    outer loop
      vertex -10.5 -7.5 -12
      vertex -9.36916 -9.36916 -12
      vertex -11.4748 -6.625 -12
    endloop
  endfacet
  facet normal 0 0 -1
    outer loop
      vertex -12.7985 -3.42935 -12
      vertex -11.4748 6.625 -12
      vertex -10.5 7.5 -12
    endloop
  endfacet
  facet normal 0 0 -1
    outer loop
      vertex -10.5 -7.5 -12
      vertex -12.7985 -3.42935 -12
      vertex -10.5 7.5 -12
    endloop
  endfacet
  facet normal 0 0 -1
    outer loop
      vertex -6.5 -7.5 -12
      vertex -6.625 -11.4748 -12
      vertex -9.36916 -9.36916 -12
    endloop
  endfacet
  facet normal 0 0 -1
    outer loop
      vertex -12.7985 -3.42935 -12
      vertex -10.5 -7.5 -12
      vertex -11.4748 -6.625 -12
    endloop
  endfacet
  facet normal 0 0 -1
    outer loop
      vertex -6.5 7.5 -12
      vertex 6.5 -7.5 -12
      vertex 6.625 -11.4748 -12
    endloop
  endfacet
  facet normal 0 0 -1
    outer loop
      vertex 10.5 7.5 -12
      vertex 11.4748 6.625 -12
      vertex 12.7985 3.42935 -12
    endloop
  endfacet
  facet normal 0 0 -1
    outer loop
      vertex -6.5 7.5 -12
      vertex 0 13.25 -12
      vertex 3.42935 12.7985 -12
    endloop
  endfacet
  facet normal 0 0 -1
    outer loop
      vertex 6.5 -7.5 -12
      vertex 10.5 -7.5 -12
      vertex 9.36916 -9.36916 -12
    endloop
  endfacet
  facet normal -0 0 -1
    outer loop
      vertex 6.5 7.5 -12
      vertex 9.36916 9.36916 -12
      vertex 10.5 7.5 -12
    endloop
  endfacet
  facet normal 0 0 -1
    outer loop
      vertex -10.5 7.5 -12
      vertex -9.36916 9.36916 -12
      vertex -6.625 11.4748 -12
    endloop
  endfacet
  facet normal -0 0 -1
    outer loop
      vertex -10.5 7.5 -12
      vertex -6.625 11.4748 -12
      vertex -6.5 7.5 -12
    endloop
  endfacet
  facet normal 0 0 -1
    outer loop
      vertex -6.5 7.5 -12
      vertex 3.42935 12.7985 -12
      vertex 6.625 11.4748 -12
    endloop
  endfacet
  facet normal 0 0 -1
    outer loop
      vertex -6.5 7.5 -12
      vertex 6.625 11.4748 -12
      vertex 9.36916 9.36916 -12
    endloop
  endfacet
  facet normal -0 0 -1
    outer loop
      vertex -6.5 7.5 -12
      vertex 9.36916 9.36916 -12
      vertex 6.5 7.5 -12
    endloop
  endfacet
  facet normal 0 0 -1
    outer loop
      vertex 6.5 -7.5 -12
      vertex -6.5 7.5 -12
      vertex 6.5 7.5 -12
    endloop
  endfacet
  facet normal 0 0 -1
    outer loop
      vertex 6.5 -7.5 -12
      vertex 9.36916 -9.36916 -12
      vertex 6.625 -11.4748 -12
    endloop
  endfacet
  facet normal 0 0 -1
    outer loop
      vertex -6.5 -7.5 -12
      vertex 0 -13.25 -12
      vertex -3.42935 -12.7985 -12
    endloop
  endfacet
  facet normal 0 0 -1
    outer loop
      vertex -6.5 -7.5 -12
      vertex -3.42935 -12.7985 -12
      vertex -6.625 -11.4748 -12
    endloop
  endfacet
  facet normal 0 0 -1
    outer loop
      vertex 10.5 7.5 -12
      vertex 11.4748 -6.625 -12
      vertex 10.5 -7.5 -12
    endloop
  endfacet
  facet normal 0 0 -1
    outer loop
      vertex 10.5 7.5 -12
      vertex 12.7985 -3.42935 -12
      vertex 11.4748 -6.625 -12
    endloop
  endfacet
  facet normal 0 0 -1
    outer loop
      vertex 10.5 7.5 -12
      vertex 13.25 0 -12
      vertex 12.7985 -3.42935 -12
    endloop
  endfacet
  facet normal -0.991445 0.130526 0
    outer loop
      vertex -13.25 0 -12
      vertex -13.25 0 12
      vertex -12.7985 3.42935 -12
    endloop
  endfacet
  facet normal -0.991445 0.130526 0
    outer loop
      vertex -12.7985 3.42935 -12
      vertex -13.25 0 12
      vertex -12.7985 3.42935 12
    endloop
  endfacet
  facet normal -0.991445 -0.130526 -0
    outer loop
      vertex -13.25 0 -12
      vertex -12.7985 -3.42935 -12
      vertex -13.25 0 12
    endloop
  endfacet
  facet normal -0.991445 -0.130526 0
    outer loop
      vertex -13.25 0 12
      vertex -12.7985 -3.42935 -12
      vertex -12.7985 -3.42935 12
    endloop
  endfacet
  facet normal -0.92388 -0.382683 -0
    outer loop
      vertex -12.7985 -3.42935 -12
      vertex -11.4748 -6.625 -12
      vertex -12.7985 -3.42935 12
    endloop
  endfacet
  facet normal -0.92388 -0.382683 0
    outer loop
      vertex -12.7985 -3.42935 12
      vertex -11.4748 -6.625 -12
      vertex -11.4748 -6.625 12
    endloop
  endfacet
  facet normal -0.793353 -0.608761 -0
    outer loop
      vertex -11.4748 -6.625 -12
      vertex -9.36916 -9.36916 -12
      vertex -11.4748 -6.625 12
    endloop
  endfacet
  facet normal -0.793353 -0.608761 0
    outer loop
      vertex -11.4748 -6.625 12
      vertex -9.36916 -9.36916 -12
      vertex -9.36916 -9.36916 12
    endloop
  endfacet
  facet normal -0.608761 -0.793353 0
    outer loop
      vertex -9.36916 -9.36916 12
      vertex -9.36916 -9.36916 -12
      vertex -6.625 -11.4748 -12
    endloop
  endfacet
  facet normal -0.608761 -0.793353 0
    outer loop
      vertex -6.625 -11.4748 12
      vertex -9.36916 -9.36916 12
      vertex -6.625 -11.4748 -12
    endloop
  endfacet
  facet normal -0.382683 -0.92388 1.30896e-16
    outer loop
      vertex -6 -11.7337 -3
      vertex -6.625 -11.4748 -12
      vertex -3.42935 -12.7985 -12
    endloop
  endfacet
  facet normal -0.382683 -0.92388 -0
    outer loop
      vertex -6 -11.7337 -3
      vertex -6 -11.7337 12
      vertex -6.625 -11.4748 12
    endloop
  endfacet
  facet normal -0.382683 -0.92388 0
    outer loop
      vertex -6.625 -11.4748 12
      vertex -6.625 -11.4748 -12
      vertex -6 -11.7337 -3
    endloop
  endfacet
  facet normal -0.382683 -0.92388 0
    outer loop
      vertex -3.42935 -12.7985 -3
      vertex -6 -11.7337 -3
      vertex -3.42935 -12.7985 -12
    endloop
  endfacet
  facet normal -0.130526 -0.991445 0
    outer loop
      vertex -3.42935 -12.7985 -3
      vertex -3.42935 -12.7985 -12
      vertex 0 -13.25 -12
    endloop
  endfacet
  facet normal -0.130526 -0.991445 0
    outer loop
      vertex 0 -13.25 -3
      vertex -3.42935 -12.7985 -3
      vertex 0 -13.25 -12
    endloop
  endfacet
  facet normal 0.130526 -0.991445 0
    outer loop
      vertex 0 -13.25 -3
      vertex 0 -13.25 -12
      vertex 3.42935 -12.7985 -12
    endloop
  endfacet
  facet normal 0.130526 -0.991445 0
    outer loop
      vertex 3.42935 -12.7985 -3
      vertex 0 -13.25 -3
      vertex 3.42935 -12.7985 -12
    endloop
  endfacet
  facet normal 0.382683 -0.92388 0
    outer loop
      vertex 3.42935 -12.7985 -3
      vertex 3.42935 -12.7985 -12
      vertex 6.625 -11.4748 -12
    endloop
  endfacet
  facet normal 0.382683 -0.92388 0
    outer loop
      vertex 6.625 -11.4748 -3
      vertex 3.42935 -12.7985 -3
      vertex 6.625 -11.4748 -12
    endloop
  endfacet
  facet normal 0.608761 -0.793353 0
    outer loop
      vertex 6.625 -11.4748 -3
      vertex 6.625 -11.4748 -12
      vertex 9.36916 -9.36916 -12
    endloop
  endfacet
  facet normal 0.608761 -0.793353 3.71587e-16
    outer loop
      vertex 6.75 -11.3789 -3
      vertex 6.625 -11.4748 -3
      vertex 9.36916 -9.36916 -12
    endloop
  endfacet
  facet normal 0.608761 -0.793353 0
    outer loop
      vertex 9.36916 -9.36916 12
      vertex 6.75 -11.3789 -3
      vertex 9.36916 -9.36916 -12
    endloop
  endfacet
  facet normal 0.608761 -0.793353 0
    outer loop
      vertex 6.75 -11.3789 12
      vertex 6.75 -11.3789 -3
      vertex 9.36916 -9.36916 12
    endloop
  endfacet
  facet normal 0.793353 -0.608761 0
    outer loop
      vertex 9.36916 -9.36916 12
      vertex 9.36916 -9.36916 -12
      vertex 11.4748 -6.625 -12
    endloop
  endfacet
  facet normal 0.793353 -0.608761 0
    outer loop
      vertex 11.4748 -6.625 12
      vertex 9.36916 -9.36916 12
      vertex 11.4748 -6.625 -12
    endloop
  endfacet
  facet normal 0.92388 -0.382683 0
    outer loop
      vertex 11.4748 -6.625 12
      vertex 11.4748 -6.625 -12
      vertex 12.7985 -3.42935 -12
    endloop
  endfacet
  facet normal 0.92388 -0.382683 0
    outer loop
      vertex 12.7985 -3.42935 12
      vertex 11.4748 -6.625 12
      vertex 12.7985 -3.42935 -12
    endloop
  endfacet
  facet normal 0.991445 -0.130526 0
    outer loop
      vertex 12.7985 -3.42935 12
      vertex 12.7985 -3.42935 -12
      vertex 13.25 0 -12
    endloop
  endfacet
  facet normal 0.991445 -0.130526 0
    outer loop
      vertex 13.25 0 12
      vertex 12.7985 -3.42935 12
      vertex 13.25 0 -12
    endloop
  endfacet
  facet normal 0.991445 0.130526 0
    outer loop
      vertex 13.25 0 -12
      vertex 12.7985 3.42935 -12
      vertex 12.7985 3.42935 12
    endloop
  endfacet
  facet normal 0.991445 0.130526 -0
    outer loop
      vertex 13.25 0 12
      vertex 13.25 0 -12
      vertex 12.7985 3.42935 12
    endloop
  endfacet
  facet normal 0.92388 0.382683 0
    outer loop
      vertex 12.7985 3.42935 -12
      vertex 11.4748 6.625 -12
      vertex 11.4748 6.625 12
    endloop
  endfacet
  facet normal 0.92388 0.382683 -0
    outer loop
      vertex 12.7985 3.42935 12
      vertex 12.7985 3.42935 -12
      vertex 11.4748 6.625 12
    endloop
  endfacet
  facet normal 0.793353 0.608761 0
    outer loop
      vertex 11.4748 6.625 -12
      vertex 9.36916 9.36916 -12
      vertex 9.36916 9.36916 12
    endloop
  endfacet
  facet normal 0.793353 0.608761 -0
    outer loop
      vertex 11.4748 6.625 12
      vertex 11.4748 6.625 -12
      vertex 9.36916 9.36916 12
    endloop
  endfacet
  facet normal 0.608761 0.793353 0
    outer loop
      vertex 6.625 11.4748 -12
      vertex 6.625 11.4748 -10
      vertex 9.36916 9.36916 -12
    endloop
  endfacet
  facet normal 0.608761 0.793353 2.65312e-15
    outer loop
      vertex 9.36916 9.36916 -12
      vertex 6.625 11.4748 -10
      vertex 6.75 11.3789 -10
    endloop
  endfacet
  facet normal 0.608761 0.793353 0
    outer loop
      vertex 9.36916 9.36916 -12
      vertex 6.75 11.3789 -10
      vertex 6.75 11.3789 12
    endloop
  endfacet
  facet normal 0.608761 0.793353 0
    outer loop
      vertex 9.36916 9.36916 -12
      vertex 6.75 11.3789 12
      vertex 9.36916 9.36916 12
    endloop
  endfacet
  facet normal 0.382683 0.92388 0
    outer loop
      vertex 3.42935 12.7985 -12
      vertex 3.42935 12.7985 -10
      vertex 6.625 11.4748 -12
    endloop
  endfacet
  facet normal 0.382683 0.92388 0
    outer loop
      vertex 6.625 11.4748 -12
      vertex 3.42935 12.7985 -10
      vertex 6.625 11.4748 -10
    endloop
  endfacet
  facet normal 0.130526 0.991445 0
    outer loop
      vertex 0 13.25 -12
      vertex 0 13.25 -10
      vertex 3.42935 12.7985 -12
    endloop
  endfacet
  facet normal 0.130526 0.991445 0
    outer loop
      vertex 3.42935 12.7985 -12
      vertex 0 13.25 -10
      vertex 3.42935 12.7985 -10
    endloop
  endfacet
  facet normal -0.130526 0.991445 0
    outer loop
      vertex -3.42935 12.7985 -12
      vertex -3.42935 12.7985 -10
      vertex 0 13.25 -12
    endloop
  endfacet
  facet normal -0.130526 0.991445 0
    outer loop
      vertex 0 13.25 -12
      vertex -3.42935 12.7985 -10
      vertex 0 13.25 -10
    endloop
  endfacet
  facet normal -0.382683 0.92388 0
    outer loop
      vertex -3.42935 12.7985 -10
      vertex -3.42935 12.7985 -12
      vertex -6 11.7337 -10
    endloop
  endfacet
  facet normal -0.382683 0.92388 0
    outer loop
      vertex -6.625 11.4748 -12
      vertex -6.625 11.4748 12
      vertex -6 11.7337 -10
    endloop
  endfacet
  facet normal -0.382683 0.92388 5.94104e-16
    outer loop
      vertex -6.625 11.4748 -12
      vertex -6 11.7337 -10
      vertex -3.42935 12.7985 -12
    endloop
  endfacet
  facet normal -0.382683 0.92388 0
    outer loop
      vertex -6 11.7337 -10
      vertex -6.625 11.4748 12
      vertex -6 11.7337 12
    endloop
  endfacet
  facet normal -0.608761 0.793353 0
    outer loop
      vertex -9.36916 9.36916 -12
      vertex -9.36916 9.36916 12
      vertex -6.625 11.4748 -12
    endloop
  endfacet
  facet normal -0.608761 0.793353 0
    outer loop
      vertex -6.625 11.4748 -12
      vertex -9.36916 9.36916 12
      vertex -6.625 11.4748 12
    endloop
  endfacet
  facet normal -0.793353 0.608761 0
    outer loop
      vertex -11.4748 6.625 -12
      vertex -11.4748 6.625 12
      vertex -9.36916 9.36916 -12
    endloop
  endfacet
  facet normal -0.793353 0.608761 0
    outer loop
      vertex -9.36916 9.36916 -12
      vertex -11.4748 6.625 12
      vertex -9.36916 9.36916 12
    endloop
  endfacet
  facet normal -0.92388 0.382683 0
    outer loop
      vertex -12.7985 3.42935 -12
      vertex -12.7985 3.42935 12
      vertex -11.4748 6.625 -12
    endloop
  endfacet
  facet normal -0.92388 0.382683 0
    outer loop
      vertex -11.4748 6.625 -12
      vertex -12.7985 3.42935 12
      vertex -11.4748 6.625 12
    endloop
  endfacet
  facet normal -1 -0 -0
    outer loop
      vertex -10.5 -7.5 -18.75
      vertex -10.5 -7.5 -12
      vertex -10.5 7.5 -18.75
    endloop
  endfacet
  facet normal -1 0 0
    outer loop
      vertex -10.5 7.5 -18.75
      vertex -10.5 -7.5 -12
      vertex -10.5 7.5 -12
    endloop
  endfacet
  facet normal 0 1 0
    outer loop
      vertex -10.5 7.5 -18.75
      vertex -10.5 7.5 -12
      vertex -6.5 7.5 -18.75
    endloop
  endfacet
  facet normal 0 1 0
    outer loop
      vertex -6.5 7.5 -18.75
      vertex -10.5 7.5 -12
      vertex -6.5 7.5 -12
    endloop
  endfacet
  facet normal 1 0 -0
    outer loop
      vertex -6.5 -7.5 -12
      vertex -6.5 -7.5 -18.75
      vertex -6.5 7.5 -18.75
    endloop
  endfacet
  facet normal 1 0 0
    outer loop
      vertex -6.5 7.5 -12
      vertex -6.5 -7.5 -12
      vertex -6.5 7.5 -18.75
    endloop
  endfacet
  facet normal 0 -1 0
    outer loop
      vertex -10.5 -7.5 -12
      vertex -10.5 -7.5 -18.75
      vertex -6.5 -7.5 -18.75
    endloop
  endfacet
  facet normal 0 -1 0
    outer loop
      vertex -6.5 -7.5 -12
      vertex -10.5 -7.5 -12
      vertex -6.5 -7.5 -18.75
    endloop
  endfacet
  facet normal -1 -0 -0
    outer loop
      vertex 6.5 -7.5 -18.75
      vertex 6.5 -7.5 -12
      vertex 6.5 7.5 -18.75
    endloop
  endfacet
  facet normal -1 0 0
    outer loop
      vertex 6.5 7.5 -18.75
      vertex 6.5 -7.5 -12
      vertex 6.5 7.5 -12
    endloop
  endfacet
  facet normal 0 1 0
    outer loop
      vertex 6.5 7.5 -18.75
      vertex 6.5 7.5 -12
      vertex 10.5 7.5 -18.75
    endloop
  endfacet
  facet normal 0 1 0
    outer loop
      vertex 10.5 7.5 -18.75
      vertex 6.5 7.5 -12
      vertex 10.5 7.5 -12
    endloop
  endfacet
  facet normal 1 0 -0
    outer loop
      vertex 10.5 -7.5 -12
      vertex 10.5 -7.5 -18.75
      vertex 10.5 7.5 -18.75
    endloop
  endfacet
  facet normal 1 0 0
    outer loop
      vertex 10.5 7.5 -12
      vertex 10.5 -7.5 -12
      vertex 10.5 7.5 -18.75
    endloop
  endfacet
  facet normal 0 -1 0
    outer loop
      vertex 6.5 -7.5 -12
      vertex 6.5 -7.5 -18.75
      vertex 10.5 -7.5 -18.75
    endloop
  endfacet
  facet normal 0 -1 0
    outer loop
      vertex 10.5 -7.5 -12
      vertex 6.5 -7.5 -12
      vertex 10.5 -7.5 -18.75
    endloop
  endfacet
  facet normal 0 0 1
    outer loop
      vertex -12.7985 3.42935 12
      vertex -13.25 0 12
      vertex -12.7985 -3.42935 12
    endloop
  endfacet
  facet normal 0 0 1
    outer loop
      vertex -9.36916 -9.36916 12
      vertex -12.7985 3.42935 12
      vertex -11.4748 -6.625 12
    endloop
  endfacet
  facet normal 0 0 1
    outer loop
      vertex -11.4748 -6.625 12
      vertex -12.7985 3.42935 12
      vertex -12.7985 -3.42935 12
    endloop
  endfacet
  facet normal 0 0 1
    outer loop
      vertex -6.625 -11.4748 12
      vertex -12.7985 3.42935 12
      vertex -9.36916 -9.36916 12
    endloop
  endfacet
  facet normal 0 0 1
    outer loop
      vertex -6 -11.7337 12
      vertex -12.7985 3.42935 12
      vertex -6.625 -11.4748 12
    endloop
  endfacet
  facet normal 0 0 1
    outer loop
      vertex -6 11.7337 12
      vertex -12.7985 3.42935 12
      vertex -6 -11.7337 12
    endloop
  endfacet
  facet normal 0 -0 1
    outer loop
      vertex -6.625 11.4748 12
      vertex -12.7985 3.42935 12
      vertex -6 11.7337 12
    endloop
  endfacet
  facet normal 0 -0 1
    outer loop
      vertex -9.36916 9.36916 12
      vertex -12.7985 3.42935 12
      vertex -6.625 11.4748 12
    endloop
  endfacet
  facet normal 0 -0 1
    outer loop
      vertex -11.4748 6.625 12
      vertex -12.7985 3.42935 12
      vertex -9.36916 9.36916 12
    endloop
  endfacet
  facet normal 1 0 -0
    outer loop
      vertex -6 -7.5 -3
      vertex -6 -7.5 -10
      vertex -6 11.7337 -10
    endloop
  endfacet
  facet normal 1 0 0
    outer loop
      vertex -6 -11.7337 12
      vertex -6 -7.5 -3
      vertex -6 11.7337 12
    endloop
  endfacet
  facet normal 1 0 0
    outer loop
      vertex -6 11.7337 12
      vertex -6 -7.5 -3
      vertex -6 11.7337 -10
    endloop
  endfacet
  facet normal 1 0 0
    outer loop
      vertex -6 -11.7337 -3
      vertex -6 -7.5 -3
      vertex -6 -11.7337 12
    endloop
  endfacet
  facet normal 0 0 1
    outer loop
      vertex -3.42935 -12.7985 -3
      vertex 0 -13.25 -3
      vertex 3.42935 -12.7985 -3
    endloop
  endfacet
  facet normal 0 0 1
    outer loop
      vertex 6.75 -11.3789 -3
      vertex -3.42935 -12.7985 -3
      vertex 6.625 -11.4748 -3
    endloop
  endfacet
  facet normal 0 0 1
    outer loop
      vertex 6.625 -11.4748 -3
      vertex -3.42935 -12.7985 -3
      vertex 3.42935 -12.7985 -3
    endloop
  endfacet
  facet normal 0 0 1
    outer loop
      vertex 6.75 -7.5 -3
      vertex -3.42935 -12.7985 -3
      vertex 6.75 -11.3789 -3
    endloop
  endfacet
  facet normal 0 0 1
    outer loop
      vertex -6 -7.5 -3
      vertex -3.42935 -12.7985 -3
      vertex 6.75 -7.5 -3
    endloop
  endfacet
  facet normal 0 0 1
    outer loop
      vertex -6 -11.7337 -3
      vertex -3.42935 -12.7985 -3
      vertex -6 -7.5 -3
    endloop
  endfacet
  facet normal -1 0 0
    outer loop
      vertex 6.75 11.3789 12
      vertex 6.75 11.3789 -10
      vertex 6.75 -11.3789 12
    endloop
  endfacet
  facet normal -1 0 0
    outer loop
      vertex 6.75 -7.5 -3
      vertex 6.75 11.3789 -10
      vertex 6.75 -7.5 -10
    endloop
  endfacet
  facet normal -1 0 0
    outer loop
      vertex 6.75 -11.3789 12
      vertex 6.75 11.3789 -10
      vertex 6.75 -7.5 -3
    endloop
  endfacet
  facet normal -1 -0 -0
    outer loop
      vertex 6.75 -11.3789 -3
      vertex 6.75 -11.3789 12
      vertex 6.75 -7.5 -3
    endloop
  endfacet
  facet normal 0 -0 1
    outer loop
      vertex 6.75 11.3789 12
      vertex 6.75 -11.3789 12
      vertex 9.36916 -9.36916 12
    endloop
  endfacet
  facet normal -0 0 1
    outer loop
      vertex 12.7985 -3.42935 12
      vertex 6.75 11.3789 12
      vertex 11.4748 -6.625 12
    endloop
  endfacet
  facet normal -0 0 1
    outer loop
      vertex 11.4748 -6.625 12
      vertex 6.75 11.3789 12
      vertex 9.36916 -9.36916 12
    endloop
  endfacet
  facet normal -0 0 1
    outer loop
      vertex 13.25 0 12
      vertex 6.75 11.3789 12
      vertex 12.7985 -3.42935 12
    endloop
  endfacet
  facet normal -0 -0 1
    outer loop
      vertex 12.7985 3.42935 12
      vertex 6.75 11.3789 12
      vertex 13.25 0 12
    endloop
  endfacet
  facet normal -0 -0 1
    outer loop
      vertex 11.4748 6.625 12
      vertex 6.75 11.3789 12
      vertex 12.7985 3.42935 12
    endloop
  endfacet
  facet normal -0 -0 1
    outer loop
      vertex 9.36916 9.36916 12
      vertex 6.75 11.3789 12
      vertex 11.4748 6.625 12
    endloop
  endfacet
  facet normal 0 0 1
    outer loop
      vertex 6.75 -7.5 -10
      vertex 6.75 11.3789 -10
      vertex 6.625 11.4748 -10
    endloop
  endfacet
  facet normal 0 0 1
    outer loop
      vertex 0 13.25 -10
      vertex 6.75 -7.5 -10
      vertex 3.42935 12.7985 -10
    endloop
  endfacet
  facet normal 0 0 1
    outer loop
      vertex 3.42935 12.7985 -10
      vertex 6.75 -7.5 -10
      vertex 6.625 11.4748 -10
    endloop
  endfacet
  facet normal 0 0 1
    outer loop
      vertex -3.42935 12.7985 -10
      vertex 6.75 -7.5 -10
      vertex 0 13.25 -10
    endloop
  endfacet
  facet normal 0 0 1
    outer loop
      vertex -6 11.7337 -10
      vertex 6.75 -7.5 -10
      vertex -3.42935 12.7985 -10
    endloop
  endfacet
  facet normal 0 0 1
    outer loop
      vertex -6 -7.5 -10
      vertex 6.75 -7.5 -10
      vertex -6 11.7337 -10
    endloop
  endfacet
  facet normal -0 -0 -1
    outer loop
      vertex -10.5 -7.5 -18.75
      vertex -10.5 7.5 -18.75
      vertex -6.5 -7.5 -18.75
    endloop
  endfacet
  facet normal 0 0 -1
    outer loop
      vertex -6.5 -7.5 -18.75
      vertex -10.5 7.5 -18.75
      vertex -6.5 7.5 -18.75
    endloop
  endfacet
  facet normal -0 -0 -1
    outer loop
      vertex 6.5 -7.5 -18.75
      vertex 6.5 7.5 -18.75
      vertex 10.5 -7.5 -18.75
    endloop
  endfacet
  facet normal 0 0 -1
    outer loop
      vertex 10.5 -7.5 -18.75
      vertex 6.5 7.5 -18.75
      vertex 10.5 7.5 -18.75
    endloop
  endfacet
  facet normal 0 1 0
    outer loop
      vertex 6.75 -7.5 -3
      vertex 6.75 -7.5 -10
      vertex -6 -7.5 -3
    endloop
  endfacet
  facet normal 0 1 -0
    outer loop
      vertex -6 -7.5 -3
      vertex 6.75 -7.5 -10
      vertex -6 -7.5 -10
    endloop
  endfacet
endsolid OpenSCAD_Model
