solid OpenSCAD_Model
  facet normal -0.207862 -0.0218472 0.977914
    outer loop
      vertex -4.70378 0 20.7535
      vertex -10.601 0 19.5
      vertex -10.4062 -1.85284 19.5
    endloop
  endfacet
  facet normal -0 0 -1
    outer loop
      vertex -10.3693 2.20406 19.5
      vertex -10.2602 2.53994 19.5
      vertex -10.564 0.351229 19.5
    endloop
  endfacet
  facet normal 0 -0 -1
    outer loop
      vertex -10.1422 2.7176 19.5
      vertex -10.2602 2.53994 19.5
      vertex -9.68446 4.3118 19.5
    endloop
  endfacet
  facet normal 0 -0 -1
    outer loop
      vertex -9.09327 5.25 19.5
      vertex -9.50788 4.61765 19.5
      vertex -8.57636 6.23109 19.5
    endloop
  endfacet
  facet normal 0 0 -1
    outer loop
      vertex -10.1422 2.7176 19.5
      vertex -9.50788 4.61765 19.5
      vertex -9.09327 5.25 19.5
    endloop
  endfacet
  facet normal 0 -0 -1
    outer loop
      vertex -7.42462 7.42462 19.5
      vertex -8.34005 6.49354 19.5
      vertex -7.09343 7.87805 19.5
    endloop
  endfacet
  facet normal 0 0 -1
    outer loop
      vertex -9.09327 5.25 19.5
      vertex -8.34005 6.49354 19.5
      vertex -7.42462 7.42462 19.5
    endloop
  endfacet
  facet normal 0 -0 -1
    outer loop
      vertex -5.25 9.09327 19.5
      vertex -5.30048 9.1807 19.5
      vertex -4.97785 9.32435 19.5
    endloop
  endfacet
  facet normal 0 0 -1
    outer loop
      vertex -7.42462 7.42462 19.5
      vertex -6.80771 8.08564 19.5
      vertex -5.30048 9.1807 19.5
    endloop
  endfacet
  facet normal 0 0 -1
    outer loop
      vertex -7.42462 7.42462 19.5
      vertex -5.30048 9.1807 19.5
      vertex -5.25 9.09327 19.5
    endloop
  endfacet
  facet normal 0 -0 -1
    outer loop
      vertex -2.7176 10.1422 19.5
      vertex -2.93043 10.1555 19.5
      vertex -1.1081 10.5429 19.5
    endloop
  endfacet
  facet normal 0 -0 -1
    outer loop
      vertex 0 10.5 19.5
      vertex -1.1081 10.5429 19.5
      vertex 1.1081 10.5429 19.5
    endloop
  endfacet
  facet normal -0 -0 -1
    outer loop
      vertex 2.7176 10.1422 19.5
      vertex 1.45355 10.4695 19.5
      vertex 3.27588 10.0821 19.5
    endloop
  endfacet
  facet normal 0 0 -1
    outer loop
      vertex 0 10.5 19.5
      vertex 1.45355 10.4695 19.5
      vertex 2.7176 10.1422 19.5
    endloop
  endfacet
  facet normal -0 0 -1
    outer loop
      vertex 5.25 9.09327 19.5
      vertex 5.30048 9.1807 19.5
      vertex 5.5862 8.97312 19.5
    endloop
  endfacet
  facet normal 0 0 -1
    outer loop
      vertex 2.7176 10.1422 19.5
      vertex 3.59851 9.93847 19.5
      vertex 5.30048 9.1807 19.5
    endloop
  endfacet
  facet normal 0 0 -1
    outer loop
      vertex 2.7176 10.1422 19.5
      vertex 5.30048 9.1807 19.5
      vertex 5.25 9.09327 19.5
    endloop
  endfacet
  facet normal -0 -0 -1
    outer loop
      vertex 7.42462 7.42462 19.5
      vertex 7.32974 7.6156 19.5
      vertex 8.57636 6.23109 19.5
    endloop
  endfacet
  facet normal 0 0 -1
    outer loop
      vertex 5.25 9.09327 19.5
      vertex 7.09343 7.87805 19.5
      vertex 7.32974 7.6156 19.5
    endloop
  endfacet
  facet normal -0 -0 -1
    outer loop
      vertex 9.09327 5.25 19.5
      vertex 8.75294 5.92524 19.5
      vertex 9.68446 4.3118 19.5
    endloop
  endfacet
  facet normal 0 0 -1
    outer loop
      vertex 7.42462 7.42462 19.5
      vertex 8.75294 5.92524 19.5
      vertex 9.09327 5.25 19.5
    endloop
  endfacet
  facet normal -0 -0 -1
    outer loop
      vertex 10.1422 2.7176 19.5
      vertex 9.7936 3.97592 19.5
      vertex 10.3693 2.20406 19.5
    endloop
  endfacet
  facet normal 0 0 -1
    outer loop
      vertex 9.09327 5.25 19.5
      vertex 9.7936 3.97592 19.5
      vertex 10.1422 2.7176 19.5
    endloop
  endfacet
  facet normal 0 0 -1
    outer loop
      vertex 10.5 0 19.5
      vertex 10.601 0 19.5
      vertex 10.564 -0.351229 19.5
    endloop
  endfacet
  facet normal 0 0 -1
    outer loop
      vertex 10.1422 2.7176 19.5
      vertex 10.4062 1.85284 19.5
      vertex 10.601 0 19.5
    endloop
  endfacet
  facet normal 0 0 -1
    outer loop
      vertex 10.1422 2.7176 19.5
      vertex 10.601 0 19.5
      vertex 10.5 0 19.5
    endloop
  endfacet
  facet normal -0 0 -1
    outer loop
      vertex 10.1422 -2.7176 19.5
      vertex 10.2602 -2.53994 19.5
      vertex 9.68446 -4.3118 19.5
    endloop
  endfacet
  facet normal 0 0 -1
    outer loop
      vertex 10.5 0 19.5
      vertex 10.3693 -2.20406 19.5
      vertex 10.2602 -2.53994 19.5
    endloop
  endfacet
  facet normal -0 0 -1
    outer loop
      vertex 9.09327 -5.25 19.5
      vertex 9.50788 -4.61765 19.5
      vertex 8.57636 -6.23109 19.5
    endloop
  endfacet
  facet normal 0 0 -1
    outer loop
      vertex 10.1422 -2.7176 19.5
      vertex 9.50788 -4.61765 19.5
      vertex 9.09327 -5.25 19.5
    endloop
  endfacet
  facet normal -0 0 -1
    outer loop
      vertex 7.42462 -7.42462 19.5
      vertex 8.34005 -6.49354 19.5
      vertex 7.09343 -7.87805 19.5
    endloop
  endfacet
  facet normal 0 0 -1
    outer loop
      vertex 9.09327 -5.25 19.5
      vertex 8.34005 -6.49354 19.5
      vertex 7.42462 -7.42462 19.5
    endloop
  endfacet
  facet normal -0 0 -1
    outer loop
      vertex 5.25 -9.09327 19.5
      vertex 6.80771 -8.08564 19.5
      vertex 5.30048 -9.1807 19.5
    endloop
  endfacet
  facet normal 0 0 -1
    outer loop
      vertex 7.42462 -7.42462 19.5
      vertex 6.80771 -8.08564 19.5
      vertex 5.25 -9.09327 19.5
    endloop
  endfacet
  facet normal 0 0 -1
    outer loop
      vertex 2.7176 -10.1422 19.5
      vertex 2.93043 -10.1555 19.5
      vertex 1.1081 -10.5429 19.5
    endloop
  endfacet
  facet normal 0 0 -1
    outer loop
      vertex 0 -10.5 19.5
      vertex 1.1081 -10.5429 19.5
      vertex -1.1081 -10.5429 19.5
    endloop
  endfacet
  facet normal 0 0 -1
    outer loop
      vertex -2.7176 -10.1422 19.5
      vertex -1.45355 -10.4695 19.5
      vertex -3.27588 -10.0821 19.5
    endloop
  endfacet
  facet normal 0 0 -1
    outer loop
      vertex 0 -10.5 19.5
      vertex -1.45355 -10.4695 19.5
      vertex -2.7176 -10.1422 19.5
    endloop
  endfacet
  facet normal 0 0 -1
    outer loop
      vertex -5.25 -9.09327 19.5
      vertex -3.59851 -9.93847 19.5
      vertex -5.30048 -9.1807 19.5
    endloop
  endfacet
  facet normal 0 0 -1
    outer loop
      vertex -2.7176 -10.1422 19.5
      vertex -3.59851 -9.93847 19.5
      vertex -5.25 -9.09327 19.5
    endloop
  endfacet
  facet normal 0 0 -1
    outer loop
      vertex 5.25 -9.09327 19.5
      vertex 2.93043 -10.1555 19.5
      vertex 2.7176 -10.1422 19.5
    endloop
  endfacet
  facet normal 0 0 -1
    outer loop
      vertex -7.42462 -7.42462 19.5
      vertex -7.32974 -7.6156 19.5
      vertex -8.57636 -6.23109 19.5
    endloop
  endfacet
  facet normal 0 0 -1
    outer loop
      vertex -5.25 -9.09327 19.5
      vertex -5.5862 -8.97312 19.5
      vertex -7.09343 -7.87805 19.5
    endloop
  endfacet
  facet normal 0 0 -1
    outer loop
      vertex -9.09327 -5.25 19.5
      vertex -8.75294 -5.92524 19.5
      vertex -9.68446 -4.3118 19.5
    endloop
  endfacet
  facet normal 0 0 -1
    outer loop
      vertex -10.1422 -2.7176 19.5
      vertex -9.7936 -3.97592 19.5
      vertex -10.3693 -2.20406 19.5
    endloop
  endfacet
  facet normal 0 0 -1
    outer loop
      vertex -10.564 0.351229 19.5
      vertex -10.3693 -2.20406 19.5
      vertex -10.4062 -1.85284 19.5
    endloop
  endfacet
  facet normal 0 0 -1
    outer loop
      vertex -10.564 0.351229 19.5
      vertex -10.4062 -1.85284 19.5
      vertex -10.601 0 19.5
    endloop
  endfacet
  facet normal 0 0 -1
    outer loop
      vertex -9.09327 -5.25 19.5
      vertex -9.68446 -4.3118 19.5
      vertex -9.7936 -3.97592 19.5
    endloop
  endfacet
  facet normal 0 0 -1
    outer loop
      vertex -10.564 0.351229 19.5
      vertex -10.1422 -2.7176 19.5
      vertex -10.3693 -2.20406 19.5
    endloop
  endfacet
  facet normal 0 0 -1
    outer loop
      vertex -5.25 -9.09327 19.5
      vertex -7.09343 -7.87805 19.5
      vertex -7.32974 -7.6156 19.5
    endloop
  endfacet
  facet normal 0 0 -1
    outer loop
      vertex -7.42462 -7.42462 19.5
      vertex -8.57636 -6.23109 19.5
      vertex -8.75294 -5.92524 19.5
    endloop
  endfacet
  facet normal 0 0 -1
    outer loop
      vertex -5.25 -9.09327 19.5
      vertex -5.30048 -9.1807 19.5
      vertex -5.5862 -8.97312 19.5
    endloop
  endfacet
  facet normal 0 0 -1
    outer loop
      vertex -2.7176 -10.1422 19.5
      vertex -3.27588 -10.0821 19.5
      vertex -3.59851 -9.93847 19.5
    endloop
  endfacet
  facet normal 0 0 -1
    outer loop
      vertex 5.25 -9.09327 19.5
      vertex 3.27588 -10.0821 19.5
      vertex 2.93043 -10.1555 19.5
    endloop
  endfacet
  facet normal 0 0 -1
    outer loop
      vertex 0 -10.5 19.5
      vertex -1.1081 -10.5429 19.5
      vertex -1.45355 -10.4695 19.5
    endloop
  endfacet
  facet normal 0 0 -1
    outer loop
      vertex 5.25 -9.09327 19.5
      vertex 4.97785 -9.32435 19.5
      vertex 3.27588 -10.0821 19.5
    endloop
  endfacet
  facet normal 0 0 -1
    outer loop
      vertex 2.7176 -10.1422 19.5
      vertex 1.1081 -10.5429 19.5
      vertex 0 -10.5 19.5
    endloop
  endfacet
  facet normal 0 0 -1
    outer loop
      vertex 5.25 -9.09327 19.5
      vertex 5.30048 -9.1807 19.5
      vertex 4.97785 -9.32435 19.5
    endloop
  endfacet
  facet normal 0 0 -1
    outer loop
      vertex 7.42462 -7.42462 19.5
      vertex 7.09343 -7.87805 19.5
      vertex 6.80771 -8.08564 19.5
    endloop
  endfacet
  facet normal 0 0 -1
    outer loop
      vertex 9.09327 -5.25 19.5
      vertex 8.57636 -6.23109 19.5
      vertex 8.34005 -6.49354 19.5
    endloop
  endfacet
  facet normal 0 0 -1
    outer loop
      vertex 10.5 0 19.5
      vertex 10.2602 -2.53994 19.5
      vertex 10.1422 -2.7176 19.5
    endloop
  endfacet
  facet normal 0 0 -1
    outer loop
      vertex 10.1422 -2.7176 19.5
      vertex 9.68446 -4.3118 19.5
      vertex 9.50788 -4.61765 19.5
    endloop
  endfacet
  facet normal 0 0 -1
    outer loop
      vertex 10.5 0 19.5
      vertex 10.564 -0.351229 19.5
      vertex 10.3693 -2.20406 19.5
    endloop
  endfacet
  facet normal 0 0 -1
    outer loop
      vertex 10.1422 2.7176 19.5
      vertex 10.3693 2.20406 19.5
      vertex 10.4062 1.85284 19.5
    endloop
  endfacet
  facet normal 0 0 -1
    outer loop
      vertex 9.09327 5.25 19.5
      vertex 9.68446 4.3118 19.5
      vertex 9.7936 3.97592 19.5
    endloop
  endfacet
  facet normal 0 0 -1
    outer loop
      vertex 5.25 9.09327 19.5
      vertex 7.32974 7.6156 19.5
      vertex 7.42462 7.42462 19.5
    endloop
  endfacet
  facet normal 0 0 -1
    outer loop
      vertex 7.42462 7.42462 19.5
      vertex 8.57636 6.23109 19.5
      vertex 8.75294 5.92524 19.5
    endloop
  endfacet
  facet normal 0 0 -1
    outer loop
      vertex 5.25 9.09327 19.5
      vertex 5.5862 8.97312 19.5
      vertex 7.09343 7.87805 19.5
    endloop
  endfacet
  facet normal 0 0 -1
    outer loop
      vertex 2.7176 10.1422 19.5
      vertex 3.27588 10.0821 19.5
      vertex 3.59851 9.93847 19.5
    endloop
  endfacet
  facet normal 0 0 -1
    outer loop
      vertex -5.25 9.09327 19.5
      vertex -2.93043 10.1555 19.5
      vertex -2.7176 10.1422 19.5
    endloop
  endfacet
  facet normal -0 0 -1
    outer loop
      vertex 0 10.5 19.5
      vertex 1.1081 10.5429 19.5
      vertex 1.45355 10.4695 19.5
    endloop
  endfacet
  facet normal 0 0 -1
    outer loop
      vertex -5.25 9.09327 19.5
      vertex -3.27588 10.0821 19.5
      vertex -2.93043 10.1555 19.5
    endloop
  endfacet
  facet normal 0 0 -1
    outer loop
      vertex -2.7176 10.1422 19.5
      vertex -1.1081 10.5429 19.5
      vertex 0 10.5 19.5
    endloop
  endfacet
  facet normal 0 0 -1
    outer loop
      vertex -5.25 9.09327 19.5
      vertex -4.97785 9.32435 19.5
      vertex -3.27588 10.0821 19.5
    endloop
  endfacet
  facet normal 0 0 -1
    outer loop
      vertex -7.42462 7.42462 19.5
      vertex -7.09343 7.87805 19.5
      vertex -6.80771 8.08564 19.5
    endloop
  endfacet
  facet normal 0 0 -1
    outer loop
      vertex -9.09327 5.25 19.5
      vertex -8.57636 6.23109 19.5
      vertex -8.34005 6.49354 19.5
    endloop
  endfacet
  facet normal 0 0 -1
    outer loop
      vertex -10.1422 2.7176 19.5
      vertex -9.68446 4.3118 19.5
      vertex -9.50788 4.61765 19.5
    endloop
  endfacet
  facet normal 0 0 -1
    outer loop
      vertex -10.564 0.351229 19.5
      vertex -10.2602 2.53994 19.5
      vertex -10.1422 2.7176 19.5
    endloop
  endfacet
  facet normal 0 -0 -1
    outer loop
      vertex -10.5 0 19.5
      vertex -10.564 0.351229 19.5
      vertex -10.1422 2.7176 19.5
    endloop
  endfacet
  facet normal 0 0 -1
    outer loop
      vertex -7.42462 -7.42462 19.5
      vertex -8.75294 -5.92524 19.5
      vertex -9.09327 -5.25 19.5
    endloop
  endfacet
  facet normal 0 0 -1
    outer loop
      vertex -9.09327 -5.25 19.5
      vertex -9.7936 -3.97592 19.5
      vertex -10.1422 -2.7176 19.5
    endloop
  endfacet
  facet normal 0 0 -1
    outer loop
      vertex -10.1422 -2.7176 19.5
      vertex -10.564 0.351229 19.5
      vertex -10.5 0 19.5
    endloop
  endfacet
  facet normal 0 0 -1
    outer loop
      vertex -5.25 -9.09327 19.5
      vertex -7.32974 -7.6156 19.5
      vertex -7.42462 -7.42462 19.5
    endloop
  endfacet
  facet normal -0.207862 0.0218472 0.977914
    outer loop
      vertex -10.564 0.351229 19.5
      vertex -10.601 0 19.5
      vertex -4.70378 0 20.7535
    endloop
  endfacet
  facet normal -0.207862 0.0218472 0.977914
    outer loop
      vertex -4.60099 0.977971 20.7535
      vertex -10.564 0.351229 19.5
      vertex -4.70378 0 20.7535
    endloop
  endfacet
  facet normal -0.207862 -0.0218472 0.977914
    outer loop
      vertex -4.70378 0 20.7535
      vertex -10.4062 -1.85284 19.5
      vertex -10.3693 -2.20406 19.5
    endloop
  endfacet
  facet normal -0.207862 -0.0218472 0.977914
    outer loop
      vertex -4.60099 -0.977971 20.7535
      vertex -4.70378 0 20.7535
      vertex -10.3693 -2.20406 19.5
    endloop
  endfacet
  facet normal 0 0 1
    outer loop
      vertex -4.60099 0.977971 20.7535
      vertex -4.70378 0 20.7535
      vertex -4.60099 -0.977971 20.7535
    endloop
  endfacet
  facet normal 0 0 1
    outer loop
      vertex -3.80544 -2.76481 20.7535
      vertex -4.60099 0.977971 20.7535
      vertex -4.29712 -1.9132 20.7535
    endloop
  endfacet
  facet normal 0 0 1
    outer loop
      vertex -4.29712 -1.9132 20.7535
      vertex -4.60099 0.977971 20.7535
      vertex -4.60099 -0.977971 20.7535
    endloop
  endfacet
  facet normal 0 0 1
    outer loop
      vertex -3.14744 -3.49559 20.7535
      vertex -4.60099 0.977971 20.7535
      vertex -3.80544 -2.76481 20.7535
    endloop
  endfacet
  facet normal 0 0 1
    outer loop
      vertex -2.35189 -4.07359 20.7535
      vertex -4.60099 0.977971 20.7535
      vertex -3.14744 -3.49559 20.7535
    endloop
  endfacet
  facet normal 0 0 1
    outer loop
      vertex -1.45355 -4.47356 20.7535
      vertex -4.60099 0.977971 20.7535
      vertex -2.35189 -4.07359 20.7535
    endloop
  endfacet
  facet normal 0 0 1
    outer loop
      vertex -0.491679 -4.67801 20.7535
      vertex -4.60099 0.977971 20.7535
      vertex -1.45355 -4.47356 20.7535
    endloop
  endfacet
  facet normal -0 0 1
    outer loop
      vertex 0.491679 -4.67801 20.7535
      vertex -4.60099 0.977971 20.7535
      vertex -0.491679 -4.67801 20.7535
    endloop
  endfacet
  facet normal -0 0 1
    outer loop
      vertex 1.45355 -4.47356 20.7535
      vertex -4.60099 0.977971 20.7535
      vertex 0.491679 -4.67801 20.7535
    endloop
  endfacet
  facet normal -0 0 1
    outer loop
      vertex 2.35189 -4.07359 20.7535
      vertex -4.60099 0.977971 20.7535
      vertex 1.45355 -4.47356 20.7535
    endloop
  endfacet
  facet normal -0 -0 1
    outer loop
      vertex -0.81987 -1.42006 20.7535
      vertex -4.60099 0.977971 20.7535
      vertex 2.35189 -4.07359 20.7535
    endloop
  endfacet
  facet normal 0 0 1
    outer loop
      vertex -0.81987 -1.42006 20.7535
      vertex -1.15283 -1.16457 20.7535
      vertex -4.60099 0.977971 20.7535
    endloop
  endfacet
  facet normal 0 -0 1
    outer loop
      vertex 1.42006 -0.81987 20.7535
      vertex 1.16457 -1.15283 20.7535
      vertex 4.29712 -1.9132 20.7535
    endloop
  endfacet
  facet normal 0 -0 1
    outer loop
      vertex 3.14744 3.49559 20.7535
      vertex -4.60099 0.977971 20.7535
      vertex 3.80544 2.76481 20.7535
    endloop
  endfacet
  facet normal 0 -0 1
    outer loop
      vertex 2.35189 4.07359 20.7535
      vertex -4.60099 0.977971 20.7535
      vertex 3.14744 3.49559 20.7535
    endloop
  endfacet
  facet normal 0 -0 1
    outer loop
      vertex 1.45355 4.47356 20.7535
      vertex -4.60099 0.977971 20.7535
      vertex 2.35189 4.07359 20.7535
    endloop
  endfacet
  facet normal 0 -0 1
    outer loop
      vertex 0.491679 4.67801 20.7535
      vertex -4.60099 0.977971 20.7535
      vertex 1.45355 4.47356 20.7535
    endloop
  endfacet
  facet normal 0 -0 1
    outer loop
      vertex -0.491679 4.67801 20.7535
      vertex -4.60099 0.977971 20.7535
      vertex 0.491679 4.67801 20.7535
    endloop
  endfacet
  facet normal 0 -0 1
    outer loop
      vertex -1.45355 4.47356 20.7535
      vertex -4.60099 0.977971 20.7535
      vertex -0.491679 4.67801 20.7535
    endloop
  endfacet
  facet normal 0 -0 1
    outer loop
      vertex -2.35189 4.07359 20.7535
      vertex -4.60099 0.977971 20.7535
      vertex -1.45355 4.47356 20.7535
    endloop
  endfacet
  facet normal 0 -0 1
    outer loop
      vertex -3.14744 3.49559 20.7535
      vertex -4.60099 0.977971 20.7535
      vertex -2.35189 4.07359 20.7535
    endloop
  endfacet
  facet normal 0 -0 1
    outer loop
      vertex -3.80544 2.76481 20.7535
      vertex -4.60099 0.977971 20.7535
      vertex -3.14744 3.49559 20.7535
    endloop
  endfacet
  facet normal 0 -0 1
    outer loop
      vertex -4.29712 1.9132 20.7535
      vertex -4.60099 0.977971 20.7535
      vertex -3.80544 2.76481 20.7535
    endloop
  endfacet
  facet normal -0 -0 1
    outer loop
      vertex -1.63974 0 20.7535
      vertex -4.60099 0.977971 20.7535
      vertex -1.63865 -0.00829888 20.7535
    endloop
  endfacet
  facet normal 0 -0 1
    outer loop
      vertex 1.15947 -1.15947 20.7535
      vertex 0.82651 -1.41496 20.7535
      vertex 3.80544 -2.76481 20.7535
    endloop
  endfacet
  facet normal -0 0 1
    outer loop
      vertex -1.58387 0.424395 20.7535
      vertex -4.60099 0.977971 20.7535
      vertex -1.58496 0.416097 20.7535
    endloop
  endfacet
  facet normal 0 -0 1
    outer loop
      vertex 1.63974 0 20.7535
      vertex 1.58496 -0.416097 20.7535
      vertex 4.60099 -0.977971 20.7535
    endloop
  endfacet
  facet normal 0 0 1
    outer loop
      vertex -1.42006 0.81987 20.7535
      vertex -1.16457 1.15283 20.7535
      vertex -4.60099 0.977971 20.7535
    endloop
  endfacet
  facet normal -0 0 1
    outer loop
      vertex -1.42006 0.81987 20.7535
      vertex -4.60099 0.977971 20.7535
      vertex -1.42326 0.812136 20.7535
    endloop
  endfacet
  facet normal -0 0 1
    outer loop
      vertex -1.15947 1.15947 20.7535
      vertex -0.82651 1.41496 20.7535
      vertex -4.60099 0.977971 20.7535
    endloop
  endfacet
  facet normal 0 0 1
    outer loop
      vertex 1.58387 0.424395 20.7535
      vertex 1.63865 0.00829888 20.7535
      vertex 4.70378 0 20.7535
    endloop
  endfacet
  facet normal 0 0 1
    outer loop
      vertex -1.15947 1.15947 20.7535
      vertex -4.60099 0.977971 20.7535
      vertex -1.16457 1.15283 20.7535
    endloop
  endfacet
  facet normal 0 0 1
    outer loop
      vertex 1.15947 1.15947 20.7535
      vertex 1.41496 0.82651 20.7535
      vertex 4.60099 0.977971 20.7535
    endloop
  endfacet
  facet normal 0 0 1
    outer loop
      vertex -0.81987 1.42006 20.7535
      vertex -4.60099 0.977971 20.7535
      vertex -0.82651 1.41496 20.7535
    endloop
  endfacet
  facet normal 0 0 1
    outer loop
      vertex 0 1.63974 20.7535
      vertex 0.416097 1.58496 20.7535
      vertex 4.29712 1.9132 20.7535
    endloop
  endfacet
  facet normal 0 0 1
    outer loop
      vertex -0.432129 1.58066 20.7535
      vertex -4.60099 0.977971 20.7535
      vertex -0.81987 1.42006 20.7535
    endloop
  endfacet
  facet normal 0 0 1
    outer loop
      vertex -0.424395 1.58387 20.7535
      vertex -4.60099 0.977971 20.7535
      vertex -0.432129 1.58066 20.7535
    endloop
  endfacet
  facet normal 0 0 1
    outer loop
      vertex 0.424395 1.58387 20.7535
      vertex 0.812136 1.42326 20.7535
      vertex 4.29712 1.9132 20.7535
    endloop
  endfacet
  facet normal 0 0 1
    outer loop
      vertex 3.80544 2.76481 20.7535
      vertex -4.60099 0.977971 20.7535
      vertex -0.424395 1.58387 20.7535
    endloop
  endfacet
  facet normal 0 -0 1
    outer loop
      vertex 3.80544 2.76481 20.7535
      vertex 0 1.63974 20.7535
      vertex 4.29712 1.9132 20.7535
    endloop
  endfacet
  facet normal 0 0 1
    outer loop
      vertex 3.80544 2.76481 20.7535
      vertex -0.00829888 1.63865 20.7535
      vertex 0 1.63974 20.7535
    endloop
  endfacet
  facet normal 0 0 1
    outer loop
      vertex 0.416097 1.58496 20.7535
      vertex 0.424395 1.58387 20.7535
      vertex 4.29712 1.9132 20.7535
    endloop
  endfacet
  facet normal 0 -0 1
    outer loop
      vertex 4.29712 1.9132 20.7535
      vertex 0.812136 1.42326 20.7535
      vertex 4.60099 0.977971 20.7535
    endloop
  endfacet
  facet normal 0 0 1
    outer loop
      vertex 0.812136 1.42326 20.7535
      vertex 0.81987 1.42006 20.7535
      vertex 4.60099 0.977971 20.7535
    endloop
  endfacet
  facet normal 0 0 1
    outer loop
      vertex 0.81987 1.42006 20.7535
      vertex 1.15283 1.16457 20.7535
      vertex 4.60099 0.977971 20.7535
    endloop
  endfacet
  facet normal 0 0 1
    outer loop
      vertex 1.15283 1.16457 20.7535
      vertex 1.15947 1.15947 20.7535
      vertex 4.60099 0.977971 20.7535
    endloop
  endfacet
  facet normal 0 -0 1
    outer loop
      vertex 4.60099 0.977971 20.7535
      vertex 1.41496 0.82651 20.7535
      vertex 4.70378 0 20.7535
    endloop
  endfacet
  facet normal 0 0 1
    outer loop
      vertex 1.41496 0.82651 20.7535
      vertex 1.42006 0.81987 20.7535
      vertex 4.70378 0 20.7535
    endloop
  endfacet
  facet normal 0 0 1
    outer loop
      vertex 1.42006 0.81987 20.7535
      vertex 1.58066 0.432129 20.7535
      vertex 4.70378 0 20.7535
    endloop
  endfacet
  facet normal 0 0 1
    outer loop
      vertex 1.58066 0.432129 20.7535
      vertex 1.58387 0.424395 20.7535
      vertex 4.70378 0 20.7535
    endloop
  endfacet
  facet normal -0 0 1
    outer loop
      vertex 4.70378 0 20.7535
      vertex 1.63865 0.00829888 20.7535
      vertex 4.60099 -0.977971 20.7535
    endloop
  endfacet
  facet normal 0 0 1
    outer loop
      vertex 1.63865 0.00829888 20.7535
      vertex 1.63974 0 20.7535
      vertex 4.60099 -0.977971 20.7535
    endloop
  endfacet
  facet normal -0 0 1
    outer loop
      vertex 4.60099 -0.977971 20.7535
      vertex 1.58496 -0.416097 20.7535
      vertex 4.29712 -1.9132 20.7535
    endloop
  endfacet
  facet normal 0 0 1
    outer loop
      vertex -1.58387 0.424395 20.7535
      vertex -1.42326 0.812136 20.7535
      vertex -4.60099 0.977971 20.7535
    endloop
  endfacet
  facet normal 0 -0 1
    outer loop
      vertex 1.58496 -0.416097 20.7535
      vertex 1.58387 -0.424395 20.7535
      vertex 4.29712 -1.9132 20.7535
    endloop
  endfacet
  facet normal 0 -0 1
    outer loop
      vertex 1.58387 -0.424395 20.7535
      vertex 1.42326 -0.812136 20.7535
      vertex 4.29712 -1.9132 20.7535
    endloop
  endfacet
  facet normal 0 0 1
    outer loop
      vertex -0.424395 1.58387 20.7535
      vertex -0.00829888 1.63865 20.7535
      vertex 3.80544 2.76481 20.7535
    endloop
  endfacet
  facet normal 0 -0 1
    outer loop
      vertex 1.42326 -0.812136 20.7535
      vertex 1.42006 -0.81987 20.7535
      vertex 4.29712 -1.9132 20.7535
    endloop
  endfacet
  facet normal 0 0 1
    outer loop
      vertex -1.15947 -1.15947 20.7535
      vertex -1.41496 -0.82651 20.7535
      vertex -4.60099 0.977971 20.7535
    endloop
  endfacet
  facet normal -0 0 1
    outer loop
      vertex 4.29712 -1.9132 20.7535
      vertex 1.16457 -1.15283 20.7535
      vertex 3.80544 -2.76481 20.7535
    endloop
  endfacet
  facet normal 0 -0 1
    outer loop
      vertex 1.16457 -1.15283 20.7535
      vertex 1.15947 -1.15947 20.7535
      vertex 3.80544 -2.76481 20.7535
    endloop
  endfacet
  facet normal 0 -0 1
    outer loop
      vertex 0.82651 -1.41496 20.7535
      vertex 0.81987 -1.42006 20.7535
      vertex 3.80544 -2.76481 20.7535
    endloop
  endfacet
  facet normal -0 0 1
    outer loop
      vertex 3.80544 -2.76481 20.7535
      vertex 0.432129 -1.58066 20.7535
      vertex 3.14744 -3.49559 20.7535
    endloop
  endfacet
  facet normal 0 -0 1
    outer loop
      vertex 0.432129 -1.58066 20.7535
      vertex 0.424395 -1.58387 20.7535
      vertex 3.14744 -3.49559 20.7535
    endloop
  endfacet
  facet normal 0 -0 1
    outer loop
      vertex 0.424395 -1.58387 20.7535
      vertex 0.00829888 -1.63865 20.7535
      vertex 3.14744 -3.49559 20.7535
    endloop
  endfacet
  facet normal 0 -0 1
    outer loop
      vertex 0.00829888 -1.63865 20.7535
      vertex 0 -1.63974 20.7535
      vertex 3.14744 -3.49559 20.7535
    endloop
  endfacet
  facet normal -0 0 1
    outer loop
      vertex 3.14744 -3.49559 20.7535
      vertex -0.416097 -1.58496 20.7535
      vertex 2.35189 -4.07359 20.7535
    endloop
  endfacet
  facet normal -0 -0 1
    outer loop
      vertex -0.416097 -1.58496 20.7535
      vertex -0.424395 -1.58387 20.7535
      vertex 2.35189 -4.07359 20.7535
    endloop
  endfacet
  facet normal -0 -0 1
    outer loop
      vertex -0.424395 -1.58387 20.7535
      vertex -0.812136 -1.42326 20.7535
      vertex 2.35189 -4.07359 20.7535
    endloop
  endfacet
  facet normal -0 -0 1
    outer loop
      vertex -0.812136 -1.42326 20.7535
      vertex -0.81987 -1.42006 20.7535
      vertex 2.35189 -4.07359 20.7535
    endloop
  endfacet
  facet normal -0 -0 1
    outer loop
      vertex -1.15947 -1.15947 20.7535
      vertex -4.60099 0.977971 20.7535
      vertex -1.15283 -1.16457 20.7535
    endloop
  endfacet
  facet normal -0 -0 1
    outer loop
      vertex -1.42006 -0.81987 20.7535
      vertex -4.60099 0.977971 20.7535
      vertex -1.41496 -0.82651 20.7535
    endloop
  endfacet
  facet normal 0 0 1
    outer loop
      vertex -1.42006 -0.81987 20.7535
      vertex -1.58066 -0.432129 20.7535
      vertex -4.60099 0.977971 20.7535
    endloop
  endfacet
  facet normal -0 -0 1
    outer loop
      vertex -1.58387 -0.424395 20.7535
      vertex -4.60099 0.977971 20.7535
      vertex -1.58066 -0.432129 20.7535
    endloop
  endfacet
  facet normal -0 -0 1
    outer loop
      vertex 0 -1.63974 20.7535
      vertex -0.416097 -1.58496 20.7535
      vertex 3.14744 -3.49559 20.7535
    endloop
  endfacet
  facet normal 0 0 1
    outer loop
      vertex -1.58387 -0.424395 20.7535
      vertex -1.63865 -0.00829888 20.7535
      vertex -4.60099 0.977971 20.7535
    endloop
  endfacet
  facet normal 0 -0 1
    outer loop
      vertex 0.81987 -1.42006 20.7535
      vertex 0.432129 -1.58066 20.7535
      vertex 3.80544 -2.76481 20.7535
    endloop
  endfacet
  facet normal 0 0 1
    outer loop
      vertex -1.63974 0 20.7535
      vertex -1.58496 0.416097 20.7535
      vertex -4.60099 0.977971 20.7535
    endloop
  endfacet
  facet normal -0.207862 0.0218472 0.977914
    outer loop
      vertex -10.3693 2.20406 19.5
      vertex -10.564 0.351229 19.5
      vertex -4.60099 0.977971 20.7535
    endloop
  endfacet
  facet normal -0.198778 -0.0645867 0.977914
    outer loop
      vertex -4.60099 -0.977971 20.7535
      vertex -10.3693 -2.20406 19.5
      vertex -9.7936 -3.97592 19.5
    endloop
  endfacet
  facet normal -0.198778 -0.0645867 0.977914
    outer loop
      vertex -4.60099 -0.977971 20.7535
      vertex -9.7936 -3.97592 19.5
      vertex -9.68446 -4.3118 19.5
    endloop
  endfacet
  facet normal -0.198778 -0.0645867 0.977914
    outer loop
      vertex -4.29712 -1.9132 20.7535
      vertex -4.60099 -0.977971 20.7535
      vertex -9.68446 -4.3118 19.5
    endloop
  endfacet
  facet normal -0.181005 -0.104504 0.977914
    outer loop
      vertex -4.29712 -1.9132 20.7535
      vertex -9.68446 -4.3118 19.5
      vertex -8.75294 -5.92524 19.5
    endloop
  endfacet
  facet normal -0.181005 -0.104504 0.977914
    outer loop
      vertex -4.29712 -1.9132 20.7535
      vertex -8.75294 -5.92524 19.5
      vertex -8.57636 -6.23109 19.5
    endloop
  endfacet
  facet normal -0.181005 -0.104504 0.977914
    outer loop
      vertex -3.80544 -2.76481 20.7535
      vertex -4.29712 -1.9132 20.7535
      vertex -8.57636 -6.23109 19.5
    endloop
  endfacet
  facet normal -0.155323 -0.139853 0.977914
    outer loop
      vertex -3.80544 -2.76481 20.7535
      vertex -8.57636 -6.23109 19.5
      vertex -7.32974 -7.6156 19.5
    endloop
  endfacet
  facet normal -0.155322 -0.139853 0.977914
    outer loop
      vertex -3.80544 -2.76481 20.7535
      vertex -7.32974 -7.6156 19.5
      vertex -7.09343 -7.87805 19.5
    endloop
  endfacet
  facet normal -0.155322 -0.139853 0.977914
    outer loop
      vertex -3.14744 -3.49559 20.7535
      vertex -3.80544 -2.76481 20.7535
      vertex -7.09343 -7.87805 19.5
    endloop
  endfacet
  facet normal -0.122851 -0.16909 0.977914
    outer loop
      vertex -3.14744 -3.49559 20.7535
      vertex -7.09343 -7.87805 19.5
      vertex -5.5862 -8.97312 19.5
    endloop
  endfacet
  facet normal -0.122851 -0.16909 0.977914
    outer loop
      vertex -3.14744 -3.49559 20.7535
      vertex -5.5862 -8.97312 19.5
      vertex -5.30048 -9.1807 19.5
    endloop
  endfacet
  facet normal -0.122851 -0.16909 0.977914
    outer loop
      vertex -2.35189 -4.07359 20.7535
      vertex -3.14744 -3.49559 20.7535
      vertex -5.30048 -9.1807 19.5
    endloop
  endfacet
  facet normal -0.0850108 -0.190937 0.977914
    outer loop
      vertex -2.35189 -4.07359 20.7535
      vertex -5.30048 -9.1807 19.5
      vertex -3.59851 -9.93847 19.5
    endloop
  endfacet
  facet normal -0.0850107 -0.190937 0.977914
    outer loop
      vertex -2.35189 -4.07359 20.7535
      vertex -3.59851 -9.93847 19.5
      vertex -3.27588 -10.0821 19.5
    endloop
  endfacet
  facet normal -0.0850107 -0.190937 0.977914
    outer loop
      vertex -1.45355 -4.47356 20.7535
      vertex -2.35189 -4.07359 20.7535
      vertex -3.27588 -10.0821 19.5
    endloop
  endfacet
  facet normal -0.043455 -0.20444 0.977914
    outer loop
      vertex -1.45355 -4.47356 20.7535
      vertex -3.27588 -10.0821 19.5
      vertex -1.45355 -10.4695 19.5
    endloop
  endfacet
  facet normal -0.0434551 -0.20444 0.977914
    outer loop
      vertex -1.45355 -4.47356 20.7535
      vertex -1.45355 -10.4695 19.5
      vertex -1.1081 -10.5429 19.5
    endloop
  endfacet
  facet normal -0.0434551 -0.20444 0.977914
    outer loop
      vertex -0.491679 -4.67801 20.7535
      vertex -1.45355 -4.47356 20.7535
      vertex -1.1081 -10.5429 19.5
    endloop
  endfacet
  facet normal 0 -0.209007 0.977914
    outer loop
      vertex -0.491679 -4.67801 20.7535
      vertex -1.1081 -10.5429 19.5
      vertex 1.1081 -10.5429 19.5
    endloop
  endfacet
  facet normal 0 -0.209007 0.977914
    outer loop
      vertex 0.491679 -4.67801 20.7535
      vertex -0.491679 -4.67801 20.7535
      vertex 1.1081 -10.5429 19.5
    endloop
  endfacet
  facet normal 0.043455 -0.20444 0.977914
    outer loop
      vertex 2.93043 -10.1555 19.5
      vertex 0.491679 -4.67801 20.7535
      vertex 1.1081 -10.5429 19.5
    endloop
  endfacet
  facet normal 0.0434551 -0.20444 0.977914
    outer loop
      vertex 1.45355 -4.47356 20.7535
      vertex 0.491679 -4.67801 20.7535
      vertex 2.93043 -10.1555 19.5
    endloop
  endfacet
  facet normal 0.0434551 -0.20444 0.977914
    outer loop
      vertex 3.27588 -10.0821 19.5
      vertex 1.45355 -4.47356 20.7535
      vertex 2.93043 -10.1555 19.5
    endloop
  endfacet
  facet normal 0.0850108 -0.190937 0.977914
    outer loop
      vertex 4.97785 -9.32435 19.5
      vertex 1.45355 -4.47356 20.7535
      vertex 3.27588 -10.0821 19.5
    endloop
  endfacet
  facet normal 0.0850107 -0.190937 0.977914
    outer loop
      vertex 2.35189 -4.07359 20.7535
      vertex 1.45355 -4.47356 20.7535
      vertex 4.97785 -9.32435 19.5
    endloop
  endfacet
  facet normal 0.0850107 -0.190937 0.977914
    outer loop
      vertex 5.30048 -9.1807 19.5
      vertex 2.35189 -4.07359 20.7535
      vertex 4.97785 -9.32435 19.5
    endloop
  endfacet
  facet normal 0.122851 -0.16909 0.977914
    outer loop
      vertex 6.80771 -8.08564 19.5
      vertex 2.35189 -4.07359 20.7535
      vertex 5.30048 -9.1807 19.5
    endloop
  endfacet
  facet normal 0.122851 -0.16909 0.977914
    outer loop
      vertex 3.14744 -3.49559 20.7535
      vertex 2.35189 -4.07359 20.7535
      vertex 6.80771 -8.08564 19.5
    endloop
  endfacet
  facet normal 0.122851 -0.16909 0.977914
    outer loop
      vertex 7.09343 -7.87805 19.5
      vertex 3.14744 -3.49559 20.7535
      vertex 6.80771 -8.08564 19.5
    endloop
  endfacet
  facet normal 0.155323 -0.139853 0.977914
    outer loop
      vertex 8.34005 -6.49354 19.5
      vertex 3.14744 -3.49559 20.7535
      vertex 7.09343 -7.87805 19.5
    endloop
  endfacet
  facet normal 0.155322 -0.139853 0.977914
    outer loop
      vertex 3.80544 -2.76481 20.7535
      vertex 3.14744 -3.49559 20.7535
      vertex 8.34005 -6.49354 19.5
    endloop
  endfacet
  facet normal 0.155322 -0.139853 0.977914
    outer loop
      vertex 8.57636 -6.23109 19.5
      vertex 3.80544 -2.76481 20.7535
      vertex 8.34005 -6.49354 19.5
    endloop
  endfacet
  facet normal 0.181005 -0.104504 0.977914
    outer loop
      vertex 9.50788 -4.61765 19.5
      vertex 3.80544 -2.76481 20.7535
      vertex 8.57636 -6.23109 19.5
    endloop
  endfacet
  facet normal 0.181005 -0.104504 0.977914
    outer loop
      vertex 4.29712 -1.9132 20.7535
      vertex 3.80544 -2.76481 20.7535
      vertex 9.50788 -4.61765 19.5
    endloop
  endfacet
  facet normal 0.181005 -0.104504 0.977914
    outer loop
      vertex 9.68446 -4.3118 19.5
      vertex 4.29712 -1.9132 20.7535
      vertex 9.50788 -4.61765 19.5
    endloop
  endfacet
  facet normal 0.198778 -0.0645867 0.977914
    outer loop
      vertex 10.2602 -2.53994 19.5
      vertex 4.29712 -1.9132 20.7535
      vertex 9.68446 -4.3118 19.5
    endloop
  endfacet
  facet normal 0.198778 -0.0645867 0.977914
    outer loop
      vertex 4.60099 -0.977971 20.7535
      vertex 4.29712 -1.9132 20.7535
      vertex 10.2602 -2.53994 19.5
    endloop
  endfacet
  facet normal 0.198778 -0.0645867 0.977914
    outer loop
      vertex 10.3693 -2.20406 19.5
      vertex 4.60099 -0.977971 20.7535
      vertex 10.2602 -2.53994 19.5
    endloop
  endfacet
  facet normal 0.207862 -0.0218472 0.977914
    outer loop
      vertex 10.564 -0.351229 19.5
      vertex 4.60099 -0.977971 20.7535
      vertex 10.3693 -2.20406 19.5
    endloop
  endfacet
  facet normal 0.207862 -0.0218472 0.977914
    outer loop
      vertex 4.70378 0 20.7535
      vertex 4.60099 -0.977971 20.7535
      vertex 10.564 -0.351229 19.5
    endloop
  endfacet
  facet normal 0.207862 -0.0218472 0.977914
    outer loop
      vertex 10.601 0 19.5
      vertex 4.70378 0 20.7535
      vertex 10.564 -0.351229 19.5
    endloop
  endfacet
  facet normal 0.207862 0.0218472 0.977914
    outer loop
      vertex 10.4062 1.85284 19.5
      vertex 4.70378 0 20.7535
      vertex 10.601 0 19.5
    endloop
  endfacet
  facet normal 0.207862 0.0218472 0.977914
    outer loop
      vertex 10.3693 2.20406 19.5
      vertex 4.60099 0.977971 20.7535
      vertex 4.70378 0 20.7535
    endloop
  endfacet
  facet normal 0.207862 0.0218472 0.977914
    outer loop
      vertex 10.4062 1.85284 19.5
      vertex 10.3693 2.20406 19.5
      vertex 4.70378 0 20.7535
    endloop
  endfacet
  facet normal 0.198778 0.0645867 0.977914
    outer loop
      vertex 9.7936 3.97592 19.5
      vertex 4.60099 0.977971 20.7535
      vertex 10.3693 2.20406 19.5
    endloop
  endfacet
  facet normal 0.198778 0.0645867 0.977914
    outer loop
      vertex 9.68446 4.3118 19.5
      vertex 4.29712 1.9132 20.7535
      vertex 4.60099 0.977971 20.7535
    endloop
  endfacet
  facet normal 0.198778 0.0645867 0.977914
    outer loop
      vertex 9.7936 3.97592 19.5
      vertex 9.68446 4.3118 19.5
      vertex 4.60099 0.977971 20.7535
    endloop
  endfacet
  facet normal 0.181005 0.104504 0.977914
    outer loop
      vertex 8.75294 5.92524 19.5
      vertex 4.29712 1.9132 20.7535
      vertex 9.68446 4.3118 19.5
    endloop
  endfacet
  facet normal 0.181005 0.104504 0.977914
    outer loop
      vertex 8.57636 6.23109 19.5
      vertex 3.80544 2.76481 20.7535
      vertex 4.29712 1.9132 20.7535
    endloop
  endfacet
  facet normal 0.181005 0.104504 0.977914
    outer loop
      vertex 8.75294 5.92524 19.5
      vertex 8.57636 6.23109 19.5
      vertex 4.29712 1.9132 20.7535
    endloop
  endfacet
  facet normal 0.155323 0.139853 0.977914
    outer loop
      vertex 7.32974 7.6156 19.5
      vertex 3.80544 2.76481 20.7535
      vertex 8.57636 6.23109 19.5
    endloop
  endfacet
  facet normal 0.155322 0.139853 0.977914
    outer loop
      vertex 7.09343 7.87805 19.5
      vertex 3.14744 3.49559 20.7535
      vertex 3.80544 2.76481 20.7535
    endloop
  endfacet
  facet normal 0.155322 0.139853 0.977914
    outer loop
      vertex 7.32974 7.6156 19.5
      vertex 7.09343 7.87805 19.5
      vertex 3.80544 2.76481 20.7535
    endloop
  endfacet
  facet normal 0.122851 0.16909 0.977914
    outer loop
      vertex 5.5862 8.97312 19.5
      vertex 3.14744 3.49559 20.7535
      vertex 7.09343 7.87805 19.5
    endloop
  endfacet
  facet normal 0.122851 0.16909 0.977914
    outer loop
      vertex 5.30048 9.1807 19.5
      vertex 2.35189 4.07359 20.7535
      vertex 3.14744 3.49559 20.7535
    endloop
  endfacet
  facet normal 0.122851 0.16909 0.977914
    outer loop
      vertex 5.5862 8.97312 19.5
      vertex 5.30048 9.1807 19.5
      vertex 3.14744 3.49559 20.7535
    endloop
  endfacet
  facet normal 0.0850108 0.190937 0.977914
    outer loop
      vertex 3.59851 9.93847 19.5
      vertex 2.35189 4.07359 20.7535
      vertex 5.30048 9.1807 19.5
    endloop
  endfacet
  facet normal 0.0850107 0.190937 0.977914
    outer loop
      vertex 3.27588 10.0821 19.5
      vertex 1.45355 4.47356 20.7535
      vertex 2.35189 4.07359 20.7535
    endloop
  endfacet
  facet normal 0.0850107 0.190937 0.977914
    outer loop
      vertex 3.59851 9.93847 19.5
      vertex 3.27588 10.0821 19.5
      vertex 2.35189 4.07359 20.7535
    endloop
  endfacet
  facet normal 0.043455 0.20444 0.977914
    outer loop
      vertex 1.45355 10.4695 19.5
      vertex 1.45355 4.47356 20.7535
      vertex 3.27588 10.0821 19.5
    endloop
  endfacet
  facet normal 0.0434551 0.20444 0.977914
    outer loop
      vertex 1.1081 10.5429 19.5
      vertex 0.491679 4.67801 20.7535
      vertex 1.45355 4.47356 20.7535
    endloop
  endfacet
  facet normal 0.0434551 0.20444 0.977914
    outer loop
      vertex 1.45355 10.4695 19.5
      vertex 1.1081 10.5429 19.5
      vertex 1.45355 4.47356 20.7535
    endloop
  endfacet
  facet normal -0 0.209007 0.977914
    outer loop
      vertex 1.1081 10.5429 19.5
      vertex -1.1081 10.5429 19.5
      vertex -0.491679 4.67801 20.7535
    endloop
  endfacet
  facet normal -0 0.209007 0.977914
    outer loop
      vertex 0.491679 4.67801 20.7535
      vertex 1.1081 10.5429 19.5
      vertex -0.491679 4.67801 20.7535
    endloop
  endfacet
  facet normal -0.043455 0.20444 0.977914
    outer loop
      vertex -1.1081 10.5429 19.5
      vertex -2.93043 10.1555 19.5
      vertex -0.491679 4.67801 20.7535
    endloop
  endfacet
  facet normal -0.0434551 0.20444 0.977914
    outer loop
      vertex -2.93043 10.1555 19.5
      vertex -3.27588 10.0821 19.5
      vertex -1.45355 4.47356 20.7535
    endloop
  endfacet
  facet normal -0.0434551 0.20444 0.977914
    outer loop
      vertex -0.491679 4.67801 20.7535
      vertex -2.93043 10.1555 19.5
      vertex -1.45355 4.47356 20.7535
    endloop
  endfacet
  facet normal -0.0850108 0.190937 0.977914
    outer loop
      vertex -3.27588 10.0821 19.5
      vertex -4.97785 9.32435 19.5
      vertex -1.45355 4.47356 20.7535
    endloop
  endfacet
  facet normal -0.0850107 0.190937 0.977914
    outer loop
      vertex -4.97785 9.32435 19.5
      vertex -5.30048 9.1807 19.5
      vertex -2.35189 4.07359 20.7535
    endloop
  endfacet
  facet normal -0.0850107 0.190937 0.977914
    outer loop
      vertex -1.45355 4.47356 20.7535
      vertex -4.97785 9.32435 19.5
      vertex -2.35189 4.07359 20.7535
    endloop
  endfacet
  facet normal -0.122851 0.16909 0.977914
    outer loop
      vertex -5.30048 9.1807 19.5
      vertex -6.80771 8.08564 19.5
      vertex -2.35189 4.07359 20.7535
    endloop
  endfacet
  facet normal -0.122851 0.16909 0.977914
    outer loop
      vertex -6.80771 8.08564 19.5
      vertex -7.09343 7.87805 19.5
      vertex -3.14744 3.49559 20.7535
    endloop
  endfacet
  facet normal -0.122851 0.16909 0.977914
    outer loop
      vertex -2.35189 4.07359 20.7535
      vertex -6.80771 8.08564 19.5
      vertex -3.14744 3.49559 20.7535
    endloop
  endfacet
  facet normal -0.155323 0.139853 0.977914
    outer loop
      vertex -7.09343 7.87805 19.5
      vertex -8.34005 6.49354 19.5
      vertex -3.14744 3.49559 20.7535
    endloop
  endfacet
  facet normal -0.155322 0.139853 0.977914
    outer loop
      vertex -8.34005 6.49354 19.5
      vertex -8.57636 6.23109 19.5
      vertex -3.80544 2.76481 20.7535
    endloop
  endfacet
  facet normal -0.155322 0.139853 0.977914
    outer loop
      vertex -3.14744 3.49559 20.7535
      vertex -8.34005 6.49354 19.5
      vertex -3.80544 2.76481 20.7535
    endloop
  endfacet
  facet normal -0.181005 0.104504 0.977914
    outer loop
      vertex -8.57636 6.23109 19.5
      vertex -9.50788 4.61765 19.5
      vertex -3.80544 2.76481 20.7535
    endloop
  endfacet
  facet normal -0.181005 0.104504 0.977914
    outer loop
      vertex -9.50788 4.61765 19.5
      vertex -9.68446 4.3118 19.5
      vertex -4.29712 1.9132 20.7535
    endloop
  endfacet
  facet normal -0.181005 0.104504 0.977914
    outer loop
      vertex -3.80544 2.76481 20.7535
      vertex -9.50788 4.61765 19.5
      vertex -4.29712 1.9132 20.7535
    endloop
  endfacet
  facet normal -0.198778 0.0645867 0.977914
    outer loop
      vertex -9.68446 4.3118 19.5
      vertex -10.2602 2.53994 19.5
      vertex -4.29712 1.9132 20.7535
    endloop
  endfacet
  facet normal -0.198778 0.0645867 0.977914
    outer loop
      vertex -10.2602 2.53994 19.5
      vertex -10.3693 2.20406 19.5
      vertex -4.60099 0.977971 20.7535
    endloop
  endfacet
  facet normal -0.198778 0.0645867 0.977914
    outer loop
      vertex -4.29712 1.9132 20.7535
      vertex -10.2602 2.53994 19.5
      vertex -4.60099 0.977971 20.7535
    endloop
  endfacet
  facet normal -0.92388 -0.382683 -0
    outer loop
      vertex -10.1422 -2.7176 2.04
      vertex -10.1288 -2.75 2.04
      vertex -10.1422 -2.7176 19.5
    endloop
  endfacet
  facet normal -0.92388 -0.382683 0
    outer loop
      vertex -9.09327 -5.25 0
      vertex -10.1288 -2.75 2.04
      vertex -10.1288 -2.75 0
    endloop
  endfacet
  facet normal -0.92388 -0.382683 -4.50066e-17
    outer loop
      vertex -10.1422 -2.7176 19.5
      vertex -10.1288 -2.75 2.04
      vertex -9.09327 -5.25 0
    endloop
  endfacet
  facet normal -0.92388 -0.382683 0
    outer loop
      vertex -10.1422 -2.7176 19.5
      vertex -9.09327 -5.25 0
      vertex -9.09327 -5.25 19.5
    endloop
  endfacet
  facet normal -0.991445 -0.130526 -0
    outer loop
      vertex -10.5 0 2.04
      vertex -10.1422 -2.7176 2.04
      vertex -10.5 0 19.5
    endloop
  endfacet
  facet normal -0.991445 -0.130526 0
    outer loop
      vertex -10.5 0 19.5
      vertex -10.1422 -2.7176 2.04
      vertex -10.1422 -2.7176 19.5
    endloop
  endfacet
  facet normal -0.991445 0.130526 0
    outer loop
      vertex -10.5 0 2.04
      vertex -10.5 0 19.5
      vertex -10.1422 2.7176 2.04
    endloop
  endfacet
  facet normal -0.991445 0.130526 0
    outer loop
      vertex -10.1422 2.7176 2.04
      vertex -10.5 0 19.5
      vertex -10.1422 2.7176 19.5
    endloop
  endfacet
  facet normal -0.92388 0.382683 0
    outer loop
      vertex -10.1422 2.7176 2.04
      vertex -10.1422 2.7176 19.5
      vertex -10.1288 2.75 2.04
    endloop
  endfacet
  facet normal -0.92388 0.382683 -8.97803e-17
    outer loop
      vertex -10.1288 2.75 2.04
      vertex -10.1422 2.7176 19.5
      vertex -9.09327 5.25 19.5
    endloop
  endfacet
  facet normal -0.92388 0.382683 0
    outer loop
      vertex -10.1288 2.75 2.04
      vertex -9.09327 5.25 19.5
      vertex -9.09327 5.25 0
    endloop
  endfacet
  facet normal -0.92388 0.382683 0
    outer loop
      vertex -10.1288 2.75 2.04
      vertex -9.09327 5.25 0
      vertex -10.1288 2.75 0
    endloop
  endfacet
  facet normal -0.793353 0.608762 0
    outer loop
      vertex -9.09327 5.25 0
      vertex -9.09327 5.25 19.5
      vertex -7.42462 7.42462 0
    endloop
  endfacet
  facet normal -0.793353 0.608762 0
    outer loop
      vertex -7.42462 7.42462 0
      vertex -9.09327 5.25 19.5
      vertex -7.42462 7.42462 19.5
    endloop
  endfacet
  facet normal -0.608762 0.793353 0
    outer loop
      vertex -7.42462 7.42462 0
      vertex -7.42462 7.42462 19.5
      vertex -5.25 9.09327 0
    endloop
  endfacet
  facet normal -0.608762 0.793353 0
    outer loop
      vertex -5.25 9.09327 0
      vertex -7.42462 7.42462 19.5
      vertex -5.25 9.09327 19.5
    endloop
  endfacet
  facet normal -0.382683 0.92388 0
    outer loop
      vertex -5.25 9.09327 0
      vertex -5.25 9.09327 19.5
      vertex -2.75 10.1288 0
    endloop
  endfacet
  facet normal -0.382683 0.92388 -7.37234e-17
    outer loop
      vertex -2.75 10.1288 2.04
      vertex -5.25 9.09327 19.5
      vertex -2.7176 10.1422 19.5
    endloop
  endfacet
  facet normal -0.382683 0.92388 0
    outer loop
      vertex -2.75 10.1288 0
      vertex -5.25 9.09327 19.5
      vertex -2.75 10.1288 2.04
    endloop
  endfacet
  facet normal -0.382683 0.92388 0
    outer loop
      vertex -2.75 10.1288 2.04
      vertex -2.7176 10.1422 19.5
      vertex -2.7176 10.1422 2.04
    endloop
  endfacet
  facet normal -0.130526 0.991445 0
    outer loop
      vertex -2.7176 10.1422 2.04
      vertex -2.7176 10.1422 19.5
      vertex 0 10.5 2.04
    endloop
  endfacet
  facet normal -0.130526 0.991445 0
    outer loop
      vertex 0 10.5 2.04
      vertex -2.7176 10.1422 19.5
      vertex 0 10.5 19.5
    endloop
  endfacet
  facet normal 0.130526 0.991445 0
    outer loop
      vertex 0 10.5 2.04
      vertex 0 10.5 19.5
      vertex 2.7176 10.1422 2.04
    endloop
  endfacet
  facet normal 0.130526 0.991445 0
    outer loop
      vertex 2.7176 10.1422 2.04
      vertex 0 10.5 19.5
      vertex 2.7176 10.1422 19.5
    endloop
  endfacet
  facet normal 0.382683 0.92388 0
    outer loop
      vertex 2.7176 10.1422 2.04
      vertex 2.7176 10.1422 19.5
      vertex 2.75 10.1288 2.04
    endloop
  endfacet
  facet normal 0.382683 0.92388 -6.06017e-17
    outer loop
      vertex 2.75 10.1288 2.04
      vertex 2.7176 10.1422 19.5
      vertex 5.25 9.09327 19.5
    endloop
  endfacet
  facet normal 0.382683 0.92388 0
    outer loop
      vertex 2.75 10.1288 2.04
      vertex 5.25 9.09327 19.5
      vertex 5.25 9.09327 0
    endloop
  endfacet
  facet normal 0.382683 0.92388 -0
    outer loop
      vertex 2.75 10.1288 2.04
      vertex 5.25 9.09327 0
      vertex 2.75 10.1288 0
    endloop
  endfacet
  facet normal 0.608762 0.793353 0
    outer loop
      vertex 5.25 9.09327 0
      vertex 5.25 9.09327 19.5
      vertex 7.42462 7.42462 0
    endloop
  endfacet
  facet normal 0.608762 0.793353 0
    outer loop
      vertex 7.42462 7.42462 0
      vertex 5.25 9.09327 19.5
      vertex 7.42462 7.42462 19.5
    endloop
  endfacet
  facet normal 0.793353 0.608762 0
    outer loop
      vertex 9.09327 5.25 0
      vertex 7.42462 7.42462 0
      vertex 7.42462 7.42462 19.5
    endloop
  endfacet
  facet normal 0.793353 0.608762 -0
    outer loop
      vertex 9.09327 5.25 19.5
      vertex 9.09327 5.25 0
      vertex 7.42462 7.42462 19.5
    endloop
  endfacet
  facet normal 0.92388 0.382683 0
    outer loop
      vertex 10.1288 2.75 0
      vertex 9.09327 5.25 0
      vertex 9.09327 5.25 19.5
    endloop
  endfacet
  facet normal 0.92388 0.382683 -0
    outer loop
      vertex 10.1288 2.75 2.04
      vertex 10.1288 2.75 0
      vertex 9.09327 5.25 19.5
    endloop
  endfacet
  facet normal 0.92388 0.382683 -1.52799e-17
    outer loop
      vertex 10.1422 2.7176 19.5
      vertex 10.1288 2.75 2.04
      vertex 9.09327 5.25 19.5
    endloop
  endfacet
  facet normal 0.92388 0.382683 0
    outer loop
      vertex 10.1422 2.7176 2.04
      vertex 10.1288 2.75 2.04
      vertex 10.1422 2.7176 19.5
    endloop
  endfacet
  facet normal 0.991445 0.130526 0
    outer loop
      vertex 10.5 0 2.04
      vertex 10.1422 2.7176 2.04
      vertex 10.1422 2.7176 19.5
    endloop
  endfacet
  facet normal 0.991445 0.130526 -0
    outer loop
      vertex 10.5 0 19.5
      vertex 10.5 0 2.04
      vertex 10.1422 2.7176 19.5
    endloop
  endfacet
  facet normal 0.991445 -0.130526 0
    outer loop
      vertex 10.1422 -2.7176 19.5
      vertex 10.1422 -2.7176 2.04
      vertex 10.5 0 2.04
    endloop
  endfacet
  facet normal 0.991445 -0.130526 0
    outer loop
      vertex 10.5 0 19.5
      vertex 10.1422 -2.7176 19.5
      vertex 10.5 0 2.04
    endloop
  endfacet
  facet normal 0.92388 -0.382683 0
    outer loop
      vertex 9.09327 -5.25 19.5
      vertex 9.09327 -5.25 0
      vertex 10.1288 -2.75 0
    endloop
  endfacet
  facet normal 0.92388 -0.382683 -1.19429e-15
    outer loop
      vertex 10.1422 -2.7176 2.04
      vertex 9.09327 -5.25 19.5
      vertex 10.1288 -2.75 2.04
    endloop
  endfacet
  facet normal 0.92388 -0.382683 0
    outer loop
      vertex 10.1288 -2.75 2.04
      vertex 9.09327 -5.25 19.5
      vertex 10.1288 -2.75 0
    endloop
  endfacet
  facet normal 0.92388 -0.382683 0
    outer loop
      vertex 10.1422 -2.7176 19.5
      vertex 9.09327 -5.25 19.5
      vertex 10.1422 -2.7176 2.04
    endloop
  endfacet
  facet normal 0.793353 -0.608762 0
    outer loop
      vertex 7.42462 -7.42462 19.5
      vertex 7.42462 -7.42462 0
      vertex 9.09327 -5.25 0
    endloop
  endfacet
  facet normal 0.793353 -0.608762 0
    outer loop
      vertex 9.09327 -5.25 19.5
      vertex 7.42462 -7.42462 19.5
      vertex 9.09327 -5.25 0
    endloop
  endfacet
  facet normal 0.608762 -0.793353 0
    outer loop
      vertex 5.25 -9.09327 19.5
      vertex 5.25 -9.09327 0
      vertex 7.42462 -7.42462 0
    endloop
  endfacet
  facet normal 0.608762 -0.793353 0
    outer loop
      vertex 7.42462 -7.42462 19.5
      vertex 5.25 -9.09327 19.5
      vertex 7.42462 -7.42462 0
    endloop
  endfacet
  facet normal 0.382683 -0.92388 0
    outer loop
      vertex 2.7176 -10.1422 19.5
      vertex 2.7176 -10.1422 2.04
      vertex 2.75 -10.1288 2.04
    endloop
  endfacet
  facet normal 0.382683 -0.92388 -7.69044e-17
    outer loop
      vertex 5.25 -9.09327 0
      vertex 2.7176 -10.1422 19.5
      vertex 2.75 -10.1288 2.04
    endloop
  endfacet
  facet normal 0.382683 -0.92388 0
    outer loop
      vertex 2.75 -10.1288 0
      vertex 5.25 -9.09327 0
      vertex 2.75 -10.1288 2.04
    endloop
  endfacet
  facet normal 0.382683 -0.92388 0
    outer loop
      vertex 5.25 -9.09327 0
      vertex 5.25 -9.09327 19.5
      vertex 2.7176 -10.1422 19.5
    endloop
  endfacet
  facet normal 0.130526 -0.991445 0
    outer loop
      vertex 0 -10.5 19.5
      vertex 0 -10.5 2.04
      vertex 2.7176 -10.1422 2.04
    endloop
  endfacet
  facet normal 0.130526 -0.991445 0
    outer loop
      vertex 2.7176 -10.1422 19.5
      vertex 0 -10.5 19.5
      vertex 2.7176 -10.1422 2.04
    endloop
  endfacet
  facet normal -0.130526 -0.991445 0
    outer loop
      vertex -2.7176 -10.1422 19.5
      vertex -2.7176 -10.1422 2.04
      vertex 0 -10.5 2.04
    endloop
  endfacet
  facet normal -0.130526 -0.991445 0
    outer loop
      vertex 0 -10.5 19.5
      vertex -2.7176 -10.1422 19.5
      vertex 0 -10.5 2.04
    endloop
  endfacet
  facet normal -0.382683 -0.92388 0
    outer loop
      vertex -5.25 -9.09327 19.5
      vertex -5.25 -9.09327 0
      vertex -2.75 -10.1288 0
    endloop
  endfacet
  facet normal -0.382683 -0.92388 -4.74341e-15
    outer loop
      vertex -2.7176 -10.1422 2.04
      vertex -5.25 -9.09327 19.5
      vertex -2.75 -10.1288 2.04
    endloop
  endfacet
  facet normal -0.382683 -0.92388 0
    outer loop
      vertex -2.75 -10.1288 2.04
      vertex -5.25 -9.09327 19.5
      vertex -2.75 -10.1288 0
    endloop
  endfacet
  facet normal -0.382683 -0.92388 0
    outer loop
      vertex -2.7176 -10.1422 19.5
      vertex -5.25 -9.09327 19.5
      vertex -2.7176 -10.1422 2.04
    endloop
  endfacet
  facet normal -0.608762 -0.793353 0
    outer loop
      vertex -7.42462 -7.42462 19.5
      vertex -7.42462 -7.42462 0
      vertex -5.25 -9.09327 0
    endloop
  endfacet
  facet normal -0.608762 -0.793353 0
    outer loop
      vertex -5.25 -9.09327 19.5
      vertex -7.42462 -7.42462 19.5
      vertex -5.25 -9.09327 0
    endloop
  endfacet
  facet normal -0.793353 -0.608762 -0
    outer loop
      vertex -9.09327 -5.25 0
      vertex -7.42462 -7.42462 0
      vertex -9.09327 -5.25 19.5
    endloop
  endfacet
  facet normal -0.793353 -0.608762 0
    outer loop
      vertex -9.09327 -5.25 19.5
      vertex -7.42462 -7.42462 0
      vertex -7.42462 -7.42462 19.5
    endloop
  endfacet
  facet normal 0.990666 0.130423 0.0396267
    outer loop
      vertex -1.58387 -0.424395 20.7535
      vertex -1.20741 -0.323524 11.01
      vertex -1.63865 -0.00829888 20.7535
    endloop
  endfacet
  facet normal 0.990666 0.130424 0.0396266
    outer loop
      vertex -1.63865 -0.00829888 20.7535
      vertex -1.20741 -0.323524 11.01
      vertex -1.25 0 11.01
    endloop
  endfacet
  facet normal 0.990666 0.130424 0.0396266
    outer loop
      vertex -1.63974 0 20.7535
      vertex -1.63865 -0.00829888 20.7535
      vertex -1.25 0 11.01
    endloop
  endfacet
  facet normal 0.923154 0.382382 0.0396267
    outer loop
      vertex -1.58066 -0.432129 20.7535
      vertex -1.08253 -0.625 11.01
      vertex -1.20741 -0.323524 11.01
    endloop
  endfacet
  facet normal 0.923154 0.382382 0.0396267
    outer loop
      vertex -1.58387 -0.424395 20.7535
      vertex -1.58066 -0.432129 20.7535
      vertex -1.20741 -0.323524 11.01
    endloop
  endfacet
  facet normal 0.923154 0.382383 0.0396266
    outer loop
      vertex -1.42006 -0.81987 20.7535
      vertex -1.08253 -0.625 11.01
      vertex -1.58066 -0.432129 20.7535
    endloop
  endfacet
  facet normal 0.792729 0.608285 0.0396266
    outer loop
      vertex -1.41496 -0.82651 20.7535
      vertex -0.883883 -0.883883 11.01
      vertex -1.08253 -0.625 11.01
    endloop
  endfacet
  facet normal 0.792729 0.608285 0.0396266
    outer loop
      vertex -1.42006 -0.81987 20.7535
      vertex -1.41496 -0.82651 20.7535
      vertex -1.08253 -0.625 11.01
    endloop
  endfacet
  facet normal 0.79273 0.608284 0.0396267
    outer loop
      vertex -1.15947 -1.15947 20.7535
      vertex -0.883883 -0.883883 11.01
      vertex -1.41496 -0.82651 20.7535
    endloop
  endfacet
  facet normal 0.608285 0.792729 0.0396267
    outer loop
      vertex -0.625 -1.08253 11.01
      vertex -0.883883 -0.883883 11.01
      vertex -1.15283 -1.16457 20.7535
    endloop
  endfacet
  facet normal 0.608285 0.792729 0.0396267
    outer loop
      vertex -1.15283 -1.16457 20.7535
      vertex -0.883883 -0.883883 11.01
      vertex -1.15947 -1.15947 20.7535
    endloop
  endfacet
  facet normal 0.608284 0.79273 0.0396266
    outer loop
      vertex -0.81987 -1.42006 20.7535
      vertex -0.625 -1.08253 11.01
      vertex -1.15283 -1.16457 20.7535
    endloop
  endfacet
  facet normal 0.382382 0.923154 0.0396266
    outer loop
      vertex -0.323524 -1.20741 11.01
      vertex -0.625 -1.08253 11.01
      vertex -0.812136 -1.42326 20.7535
    endloop
  endfacet
  facet normal 0.382382 0.923154 0.0396266
    outer loop
      vertex -0.812136 -1.42326 20.7535
      vertex -0.625 -1.08253 11.01
      vertex -0.81987 -1.42006 20.7535
    endloop
  endfacet
  facet normal 0.382383 0.923154 0.0396267
    outer loop
      vertex -0.424395 -1.58387 20.7535
      vertex -0.323524 -1.20741 11.01
      vertex -0.812136 -1.42326 20.7535
    endloop
  endfacet
  facet normal 0.130424 0.990666 0.0396267
    outer loop
      vertex 0 -1.25 11.01
      vertex -0.323524 -1.20741 11.01
      vertex -0.416097 -1.58496 20.7535
    endloop
  endfacet
  facet normal 0.130424 0.990666 0.0396267
    outer loop
      vertex -0.416097 -1.58496 20.7535
      vertex -0.323524 -1.20741 11.01
      vertex -0.424395 -1.58387 20.7535
    endloop
  endfacet
  facet normal 0.130423 0.990666 0.0396266
    outer loop
      vertex 0 -1.63974 20.7535
      vertex 0 -1.25 11.01
      vertex -0.416097 -1.58496 20.7535
    endloop
  endfacet
  facet normal -0.130424 0.990666 0.0396266
    outer loop
      vertex 0.323524 -1.20741 11.01
      vertex 0 -1.25 11.01
      vertex 0.00829888 -1.63865 20.7535
    endloop
  endfacet
  facet normal -0.130424 0.990666 0.0396266
    outer loop
      vertex 0.00829888 -1.63865 20.7535
      vertex 0 -1.25 11.01
      vertex 0 -1.63974 20.7535
    endloop
  endfacet
  facet normal -0.130423 0.990666 0.0396267
    outer loop
      vertex 0.424395 -1.58387 20.7535
      vertex 0.323524 -1.20741 11.01
      vertex 0.00829888 -1.63865 20.7535
    endloop
  endfacet
  facet normal -0.382382 0.923154 0.0396267
    outer loop
      vertex 0.432129 -1.58066 20.7535
      vertex 0.625 -1.08253 11.01
      vertex 0.424395 -1.58387 20.7535
    endloop
  endfacet
  facet normal -0.382382 0.923154 0.0396267
    outer loop
      vertex 0.424395 -1.58387 20.7535
      vertex 0.625 -1.08253 11.01
      vertex 0.323524 -1.20741 11.01
    endloop
  endfacet
  facet normal -0.382383 0.923154 0.0396266
    outer loop
      vertex 0.81987 -1.42006 20.7535
      vertex 0.625 -1.08253 11.01
      vertex 0.432129 -1.58066 20.7535
    endloop
  endfacet
  facet normal -0.608285 0.792729 0.0396266
    outer loop
      vertex 0.82651 -1.41496 20.7535
      vertex 0.883883 -0.883883 11.01
      vertex 0.81987 -1.42006 20.7535
    endloop
  endfacet
  facet normal -0.608285 0.792729 0.0396266
    outer loop
      vertex 0.81987 -1.42006 20.7535
      vertex 0.883883 -0.883883 11.01
      vertex 0.625 -1.08253 11.01
    endloop
  endfacet
  facet normal -0.608284 0.79273 0.0396267
    outer loop
      vertex 1.15947 -1.15947 20.7535
      vertex 0.883883 -0.883883 11.01
      vertex 0.82651 -1.41496 20.7535
    endloop
  endfacet
  facet normal -0.792729 0.608285 0.0396267
    outer loop
      vertex 1.16457 -1.15283 20.7535
      vertex 1.08253 -0.625 11.01
      vertex 1.15947 -1.15947 20.7535
    endloop
  endfacet
  facet normal -0.792729 0.608285 0.0396267
    outer loop
      vertex 1.15947 -1.15947 20.7535
      vertex 1.08253 -0.625 11.01
      vertex 0.883883 -0.883883 11.01
    endloop
  endfacet
  facet normal -0.79273 0.608284 0.0396266
    outer loop
      vertex 1.16457 -1.15283 20.7535
      vertex 1.42006 -0.81987 20.7535
      vertex 1.08253 -0.625 11.01
    endloop
  endfacet
  facet normal -0.923154 0.382382 0.0396266
    outer loop
      vertex 1.42326 -0.812136 20.7535
      vertex 1.20741 -0.323524 11.01
      vertex 1.42006 -0.81987 20.7535
    endloop
  endfacet
  facet normal -0.923154 0.382382 0.0396266
    outer loop
      vertex 1.42006 -0.81987 20.7535
      vertex 1.20741 -0.323524 11.01
      vertex 1.08253 -0.625 11.01
    endloop
  endfacet
  facet normal -0.923154 0.382383 0.0396267
    outer loop
      vertex 1.42326 -0.812136 20.7535
      vertex 1.58387 -0.424395 20.7535
      vertex 1.20741 -0.323524 11.01
    endloop
  endfacet
  facet normal -0.990666 0.130424 0.0396267
    outer loop
      vertex 1.58496 -0.416097 20.7535
      vertex 1.25 0 11.01
      vertex 1.58387 -0.424395 20.7535
    endloop
  endfacet
  facet normal -0.990666 0.130424 0.0396267
    outer loop
      vertex 1.58387 -0.424395 20.7535
      vertex 1.25 0 11.01
      vertex 1.20741 -0.323524 11.01
    endloop
  endfacet
  facet normal -0.990666 0.130423 0.0396266
    outer loop
      vertex 1.58496 -0.416097 20.7535
      vertex 1.63974 0 20.7535
      vertex 1.25 0 11.01
    endloop
  endfacet
  facet normal -0.990666 -0.130424 0.0396266
    outer loop
      vertex 1.63974 0 20.7535
      vertex 1.63865 0.00829888 20.7535
      vertex 1.25 0 11.01
    endloop
  endfacet
  facet normal -0.990666 -0.130424 0.0396266
    outer loop
      vertex 1.25 0 11.01
      vertex 1.63865 0.00829888 20.7535
      vertex 1.20741 0.323524 11.01
    endloop
  endfacet
  facet normal -0.990666 -0.130423 0.0396267
    outer loop
      vertex 1.63865 0.00829888 20.7535
      vertex 1.58387 0.424395 20.7535
      vertex 1.20741 0.323524 11.01
    endloop
  endfacet
  facet normal -0.923154 -0.382382 0.0396267
    outer loop
      vertex 1.58387 0.424395 20.7535
      vertex 1.58066 0.432129 20.7535
      vertex 1.20741 0.323524 11.01
    endloop
  endfacet
  facet normal -0.923154 -0.382382 0.0396267
    outer loop
      vertex 1.20741 0.323524 11.01
      vertex 1.58066 0.432129 20.7535
      vertex 1.08253 0.625 11.01
    endloop
  endfacet
  facet normal -0.923154 -0.382383 0.0396266
    outer loop
      vertex 1.58066 0.432129 20.7535
      vertex 1.42006 0.81987 20.7535
      vertex 1.08253 0.625 11.01
    endloop
  endfacet
  facet normal -0.792729 -0.608285 0.0396266
    outer loop
      vertex 1.42006 0.81987 20.7535
      vertex 1.41496 0.82651 20.7535
      vertex 1.08253 0.625 11.01
    endloop
  endfacet
  facet normal -0.792729 -0.608285 0.0396266
    outer loop
      vertex 1.08253 0.625 11.01
      vertex 1.41496 0.82651 20.7535
      vertex 0.883883 0.883883 11.01
    endloop
  endfacet
  facet normal -0.79273 -0.608284 0.0396267
    outer loop
      vertex 1.41496 0.82651 20.7535
      vertex 1.15947 1.15947 20.7535
      vertex 0.883883 0.883883 11.01
    endloop
  endfacet
  facet normal -0.608285 -0.792729 0.0396267
    outer loop
      vertex 0.883883 0.883883 11.01
      vertex 1.15947 1.15947 20.7535
      vertex 1.15283 1.16457 20.7535
    endloop
  endfacet
  facet normal -0.608285 -0.792729 0.0396267
    outer loop
      vertex 0.625 1.08253 11.01
      vertex 0.883883 0.883883 11.01
      vertex 1.15283 1.16457 20.7535
    endloop
  endfacet
  facet normal -0.608284 -0.79273 0.0396266
    outer loop
      vertex 1.15283 1.16457 20.7535
      vertex 0.81987 1.42006 20.7535
      vertex 0.625 1.08253 11.01
    endloop
  endfacet
  facet normal -0.382382 -0.923154 0.0396266
    outer loop
      vertex 0.625 1.08253 11.01
      vertex 0.81987 1.42006 20.7535
      vertex 0.812136 1.42326 20.7535
    endloop
  endfacet
  facet normal -0.382382 -0.923154 0.0396266
    outer loop
      vertex 0.323524 1.20741 11.01
      vertex 0.625 1.08253 11.01
      vertex 0.812136 1.42326 20.7535
    endloop
  endfacet
  facet normal -0.382383 -0.923154 0.0396267
    outer loop
      vertex 0.812136 1.42326 20.7535
      vertex 0.424395 1.58387 20.7535
      vertex 0.323524 1.20741 11.01
    endloop
  endfacet
  facet normal -0.130424 -0.990666 0.0396267
    outer loop
      vertex 0.323524 1.20741 11.01
      vertex 0.424395 1.58387 20.7535
      vertex 0.416097 1.58496 20.7535
    endloop
  endfacet
  facet normal -0.130424 -0.990666 0.0396267
    outer loop
      vertex 0 1.25 11.01
      vertex 0.323524 1.20741 11.01
      vertex 0.416097 1.58496 20.7535
    endloop
  endfacet
  facet normal -0.130423 -0.990666 0.0396266
    outer loop
      vertex 0.416097 1.58496 20.7535
      vertex 0 1.63974 20.7535
      vertex 0 1.25 11.01
    endloop
  endfacet
  facet normal 0.130424 -0.990666 0.0396266
    outer loop
      vertex 0 1.25 11.01
      vertex 0 1.63974 20.7535
      vertex -0.00829888 1.63865 20.7535
    endloop
  endfacet
  facet normal 0.130424 -0.990666 0.0396266
    outer loop
      vertex -0.323524 1.20741 11.01
      vertex 0 1.25 11.01
      vertex -0.00829888 1.63865 20.7535
    endloop
  endfacet
  facet normal 0.130423 -0.990666 0.0396267
    outer loop
      vertex -0.323524 1.20741 11.01
      vertex -0.00829888 1.63865 20.7535
      vertex -0.424395 1.58387 20.7535
    endloop
  endfacet
  facet normal 0.382382 -0.923154 0.0396267
    outer loop
      vertex -0.323524 1.20741 11.01
      vertex -0.424395 1.58387 20.7535
      vertex -0.432129 1.58066 20.7535
    endloop
  endfacet
  facet normal 0.382382 -0.923154 0.0396267
    outer loop
      vertex -0.625 1.08253 11.01
      vertex -0.323524 1.20741 11.01
      vertex -0.432129 1.58066 20.7535
    endloop
  endfacet
  facet normal 0.382383 -0.923154 0.0396266
    outer loop
      vertex -0.625 1.08253 11.01
      vertex -0.432129 1.58066 20.7535
      vertex -0.81987 1.42006 20.7535
    endloop
  endfacet
  facet normal 0.608285 -0.792729 0.0396266
    outer loop
      vertex -0.625 1.08253 11.01
      vertex -0.81987 1.42006 20.7535
      vertex -0.82651 1.41496 20.7535
    endloop
  endfacet
  facet normal 0.608285 -0.792729 0.0396266
    outer loop
      vertex -0.883883 0.883883 11.01
      vertex -0.625 1.08253 11.01
      vertex -0.82651 1.41496 20.7535
    endloop
  endfacet
  facet normal 0.608284 -0.79273 0.0396267
    outer loop
      vertex -0.883883 0.883883 11.01
      vertex -0.82651 1.41496 20.7535
      vertex -1.15947 1.15947 20.7535
    endloop
  endfacet
  facet normal 0.792729 -0.608285 0.0396267
    outer loop
      vertex -1.08253 0.625 11.01
      vertex -0.883883 0.883883 11.01
      vertex -1.15947 1.15947 20.7535
    endloop
  endfacet
  facet normal 0.792729 -0.608285 0.0396267
    outer loop
      vertex -1.16457 1.15283 20.7535
      vertex -1.08253 0.625 11.01
      vertex -1.15947 1.15947 20.7535
    endloop
  endfacet
  facet normal 0.79273 -0.608284 0.0396266
    outer loop
      vertex -1.08253 0.625 11.01
      vertex -1.16457 1.15283 20.7535
      vertex -1.42006 0.81987 20.7535
    endloop
  endfacet
  facet normal 0.923154 -0.382382 0.0396266
    outer loop
      vertex -1.20741 0.323524 11.01
      vertex -1.08253 0.625 11.01
      vertex -1.42006 0.81987 20.7535
    endloop
  endfacet
  facet normal 0.923154 -0.382382 0.0396266
    outer loop
      vertex -1.42326 0.812136 20.7535
      vertex -1.20741 0.323524 11.01
      vertex -1.42006 0.81987 20.7535
    endloop
  endfacet
  facet normal 0.923154 -0.382383 0.0396267
    outer loop
      vertex -1.20741 0.323524 11.01
      vertex -1.42326 0.812136 20.7535
      vertex -1.58387 0.424395 20.7535
    endloop
  endfacet
  facet normal 0.990666 -0.130424 0.0396267
    outer loop
      vertex -1.25 0 11.01
      vertex -1.20741 0.323524 11.01
      vertex -1.58387 0.424395 20.7535
    endloop
  endfacet
  facet normal 0.990666 -0.130424 0.0396267
    outer loop
      vertex -1.58496 0.416097 20.7535
      vertex -1.25 0 11.01
      vertex -1.58387 0.424395 20.7535
    endloop
  endfacet
  facet normal 0.990666 -0.130423 0.0396266
    outer loop
      vertex -1.25 0 11.01
      vertex -1.58496 0.416097 20.7535
      vertex -1.63974 0 20.7535
    endloop
  endfacet
  facet normal 0 0 -1
    outer loop
      vertex -10.1288 -2.75 0
      vertex -2.75 -2.75 0
      vertex -9.09327 -5.25 0
    endloop
  endfacet
  facet normal -0 0 -1
    outer loop
      vertex -9.09327 -5.25 0
      vertex -2.75 -2.75 0
      vertex -2.75 -10.1288 0
    endloop
  endfacet
  facet normal 0 0 -1
    outer loop
      vertex -9.09327 -5.25 0
      vertex -2.75 -10.1288 0
      vertex -5.25 -9.09327 0
    endloop
  endfacet
  facet normal 0 0 -1
    outer loop
      vertex -9.09327 -5.25 0
      vertex -5.25 -9.09327 0
      vertex -7.42462 -7.42462 0
    endloop
  endfacet
  facet normal 1.20369e-16 1 -0
    outer loop
      vertex -2.75 -2.75 2.04
      vertex -2.75 -2.75 0
      vertex -10.1288 -2.75 2.04
    endloop
  endfacet
  facet normal 1.20369e-16 1 -0
    outer loop
      vertex -10.1288 -2.75 2.04
      vertex -2.75 -2.75 0
      vertex -10.1288 -2.75 0
    endloop
  endfacet
  facet normal 0 0 -1
    outer loop
      vertex -10.1288 2.75 2.04
      vertex -2.75 2.75 2.04
      vertex -10.1422 2.7176 2.04
    endloop
  endfacet
  facet normal 0 0 -1
    outer loop
      vertex -2.7176 10.1422 2.04
      vertex -2.75 2.75 2.04
      vertex -2.75 10.1288 2.04
    endloop
  endfacet
  facet normal 0 0 -1
    outer loop
      vertex 0 10.5 2.04
      vertex -2.75 2.75 2.04
      vertex -2.7176 10.1422 2.04
    endloop
  endfacet
  facet normal 0 0 -1
    outer loop
      vertex 2.7176 10.1422 2.04
      vertex -2.75 2.75 2.04
      vertex 0 10.5 2.04
    endloop
  endfacet
  facet normal 0 0 -1
    outer loop
      vertex 2.75 10.1288 2.04
      vertex -2.75 2.75 2.04
      vertex 2.7176 10.1422 2.04
    endloop
  endfacet
  facet normal 0 -0 -1
    outer loop
      vertex 2.75 2.75 2.04
      vertex -2.75 2.75 2.04
      vertex 2.75 10.1288 2.04
    endloop
  endfacet
  facet normal 0 0 -1
    outer loop
      vertex -10.1422 2.7176 2.04
      vertex -2.75 2.75 2.04
      vertex 2.75 2.75 2.04
    endloop
  endfacet
  facet normal 0 0 -1
    outer loop
      vertex -10.1422 2.7176 2.04
      vertex 2.75 2.75 2.04
      vertex 10.1288 2.75 2.04
    endloop
  endfacet
  facet normal -0 0 -1
    outer loop
      vertex -10.1422 2.7176 2.04
      vertex 10.1288 2.75 2.04
      vertex 10.1422 2.7176 2.04
    endloop
  endfacet
  facet normal 0 0 -1
    outer loop
      vertex -10.1422 2.7176 2.04
      vertex 10.1422 2.7176 2.04
      vertex 10.5 0 2.04
    endloop
  endfacet
  facet normal 0 0 -1
    outer loop
      vertex -10.1422 2.7176 2.04
      vertex 10.5 0 2.04
      vertex 10.1422 -2.7176 2.04
    endloop
  endfacet
  facet normal 0 0 -1
    outer loop
      vertex -10.1422 2.7176 2.04
      vertex 10.1422 -2.7176 2.04
      vertex 10.1288 -2.75 2.04
    endloop
  endfacet
  facet normal 0 0 -1
    outer loop
      vertex -10.1422 2.7176 2.04
      vertex 10.1288 -2.75 2.04
      vertex 2.75 -2.75 2.04
    endloop
  endfacet
  facet normal 0 0 -1
    outer loop
      vertex -2.75 -2.75 2.04
      vertex 2.75 -2.75 2.04
      vertex 2.75 -10.1288 2.04
    endloop
  endfacet
  facet normal 0 0 -1
    outer loop
      vertex -10.1422 2.7176 2.04
      vertex 2.75 -2.75 2.04
      vertex -2.75 -2.75 2.04
    endloop
  endfacet
  facet normal -0 -0 -1
    outer loop
      vertex -10.1288 -2.75 2.04
      vertex -10.1422 2.7176 2.04
      vertex -2.75 -2.75 2.04
    endloop
  endfacet
  facet normal 0 0 -1
    outer loop
      vertex -10.1422 2.7176 2.04
      vertex -10.1288 -2.75 2.04
      vertex -10.1422 -2.7176 2.04
    endloop
  endfacet
  facet normal 0 0 -1
    outer loop
      vertex -10.1422 2.7176 2.04
      vertex -10.1422 -2.7176 2.04
      vertex -10.5 0 2.04
    endloop
  endfacet
  facet normal 0 0 -1
    outer loop
      vertex -2.75 -2.75 2.04
      vertex 2.75 -10.1288 2.04
      vertex 2.7176 -10.1422 2.04
    endloop
  endfacet
  facet normal 0 0 -1
    outer loop
      vertex -2.75 -2.75 2.04
      vertex 2.7176 -10.1422 2.04
      vertex 0 -10.5 2.04
    endloop
  endfacet
  facet normal 0 0 -1
    outer loop
      vertex -2.75 -2.75 2.04
      vertex 0 -10.5 2.04
      vertex -2.7176 -10.1422 2.04
    endloop
  endfacet
  facet normal 0 0 -1
    outer loop
      vertex -2.75 -2.75 2.04
      vertex -2.7176 -10.1422 2.04
      vertex -2.75 -10.1288 2.04
    endloop
  endfacet
  facet normal -1.20369e-16 -1 -0
    outer loop
      vertex -2.75 2.75 0
      vertex -2.75 2.75 2.04
      vertex -10.1288 2.75 2.04
    endloop
  endfacet
  facet normal -1.20369e-16 -1 -0
    outer loop
      vertex -10.1288 2.75 0
      vertex -2.75 2.75 0
      vertex -10.1288 2.75 2.04
    endloop
  endfacet
  facet normal -0 0 -1
    outer loop
      vertex -10.1288 2.75 0
      vertex -9.09327 5.25 0
      vertex -2.75 2.75 0
    endloop
  endfacet
  facet normal 0 0 -1
    outer loop
      vertex -2.75 2.75 0
      vertex -9.09327 5.25 0
      vertex -7.42462 7.42462 0
    endloop
  endfacet
  facet normal 0 0 -1
    outer loop
      vertex -2.75 2.75 0
      vertex -7.42462 7.42462 0
      vertex -5.25 9.09327 0
    endloop
  endfacet
  facet normal 0 -0 -1
    outer loop
      vertex -2.75 2.75 0
      vertex -5.25 9.09327 0
      vertex -2.75 10.1288 0
    endloop
  endfacet
  facet normal 1 -2.40738e-16 0
    outer loop
      vertex -2.75 10.1288 0
      vertex -2.75 10.1288 2.04
      vertex -2.75 2.75 2.04
    endloop
  endfacet
  facet normal 1 -2.40738e-16 0
    outer loop
      vertex -2.75 2.75 0
      vertex -2.75 10.1288 0
      vertex -2.75 2.75 2.04
    endloop
  endfacet
  facet normal -1 2.40738e-16 0
    outer loop
      vertex 2.75 10.1288 2.04
      vertex 2.75 10.1288 0
      vertex 2.75 2.75 2.04
    endloop
  endfacet
  facet normal -1 2.40738e-16 0
    outer loop
      vertex 2.75 2.75 2.04
      vertex 2.75 10.1288 0
      vertex 2.75 2.75 0
    endloop
  endfacet
  facet normal -0 0 -1
    outer loop
      vertex 2.75 2.75 0
      vertex 2.75 10.1288 0
      vertex 10.1288 2.75 0
    endloop
  endfacet
  facet normal 0 0 -1
    outer loop
      vertex 10.1288 2.75 0
      vertex 2.75 10.1288 0
      vertex 5.25 9.09327 0
    endloop
  endfacet
  facet normal 0 0 -1
    outer loop
      vertex 10.1288 2.75 0
      vertex 5.25 9.09327 0
      vertex 7.42462 7.42462 0
    endloop
  endfacet
  facet normal 0 0 -1
    outer loop
      vertex 10.1288 2.75 0
      vertex 7.42462 7.42462 0
      vertex 9.09327 5.25 0
    endloop
  endfacet
  facet normal 0 -1 0
    outer loop
      vertex 10.1288 2.75 0
      vertex 10.1288 2.75 2.04
      vertex 2.75 2.75 2.04
    endloop
  endfacet
  facet normal -0 -1 -0
    outer loop
      vertex 2.75 2.75 0
      vertex 10.1288 2.75 0
      vertex 2.75 2.75 2.04
    endloop
  endfacet
  facet normal 0 1 0
    outer loop
      vertex 10.1288 -2.75 2.04
      vertex 10.1288 -2.75 0
      vertex 2.75 -2.75 2.04
    endloop
  endfacet
  facet normal 0 1 -0
    outer loop
      vertex 2.75 -2.75 2.04
      vertex 10.1288 -2.75 0
      vertex 2.75 -2.75 0
    endloop
  endfacet
  facet normal 0 0 -1
    outer loop
      vertex 2.75 -10.1288 0
      vertex 2.75 -2.75 0
      vertex 5.25 -9.09327 0
    endloop
  endfacet
  facet normal 0 -0 -1
    outer loop
      vertex 5.25 -9.09327 0
      vertex 2.75 -2.75 0
      vertex 10.1288 -2.75 0
    endloop
  endfacet
  facet normal 0 0 -1
    outer loop
      vertex 5.25 -9.09327 0
      vertex 10.1288 -2.75 0
      vertex 9.09327 -5.25 0
    endloop
  endfacet
  facet normal 0 0 -1
    outer loop
      vertex 5.25 -9.09327 0
      vertex 9.09327 -5.25 0
      vertex 7.42462 -7.42462 0
    endloop
  endfacet
  facet normal -1 2.40738e-16 0
    outer loop
      vertex 2.75 -2.75 2.04
      vertex 2.75 -2.75 0
      vertex 2.75 -10.1288 2.04
    endloop
  endfacet
  facet normal -1 2.40738e-16 0
    outer loop
      vertex 2.75 -10.1288 2.04
      vertex 2.75 -2.75 0
      vertex 2.75 -10.1288 0
    endloop
  endfacet
  facet normal 1 -2.40738e-16 0
    outer loop
      vertex -2.75 -2.75 0
      vertex -2.75 -2.75 2.04
      vertex -2.75 -10.1288 2.04
    endloop
  endfacet
  facet normal 1 -2.40738e-16 0
    outer loop
      vertex -2.75 -10.1288 0
      vertex -2.75 -2.75 0
      vertex -2.75 -10.1288 2.04
    endloop
  endfacet
  facet normal 0 0 1
    outer loop
      vertex -1.20741 -0.323524 11.01
      vertex -1.08253 -0.625 11.01
      vertex -0.883883 -0.883883 11.01
    endloop
  endfacet
  facet normal 0 0 1
    outer loop
      vertex -0.323524 -1.20741 11.01
      vertex -1.20741 -0.323524 11.01
      vertex -0.625 -1.08253 11.01
    endloop
  endfacet
  facet normal 0 0 1
    outer loop
      vertex -0.625 -1.08253 11.01
      vertex -1.20741 -0.323524 11.01
      vertex -0.883883 -0.883883 11.01
    endloop
  endfacet
  facet normal 0 0 1
    outer loop
      vertex 0 -1.25 11.01
      vertex -1.20741 -0.323524 11.01
      vertex -0.323524 -1.20741 11.01
    endloop
  endfacet
  facet normal -0 0 1
    outer loop
      vertex 0.323524 -1.20741 11.01
      vertex -1.20741 -0.323524 11.01
      vertex 0 -1.25 11.01
    endloop
  endfacet
  facet normal -0 0 1
    outer loop
      vertex 0.625 -1.08253 11.01
      vertex -1.20741 -0.323524 11.01
      vertex 0.323524 -1.20741 11.01
    endloop
  endfacet
  facet normal -0 0 1
    outer loop
      vertex 0.883883 -0.883883 11.01
      vertex -1.20741 -0.323524 11.01
      vertex 0.625 -1.08253 11.01
    endloop
  endfacet
  facet normal -0 0 1
    outer loop
      vertex 1.08253 -0.625 11.01
      vertex -1.20741 -0.323524 11.01
      vertex 0.883883 -0.883883 11.01
    endloop
  endfacet
  facet normal 0 0 1
    outer loop
      vertex 1.20741 -0.323524 11.01
      vertex -1.20741 -0.323524 11.01
      vertex 1.08253 -0.625 11.01
    endloop
  endfacet
  facet normal 0 0 1
    outer loop
      vertex 1.25 0 11.01
      vertex -1.20741 -0.323524 11.01
      vertex 1.20741 -0.323524 11.01
    endloop
  endfacet
  facet normal 0 -0 1
    outer loop
      vertex 1.20741 0.323524 11.01
      vertex -1.20741 -0.323524 11.01
      vertex 1.25 0 11.01
    endloop
  endfacet
  facet normal 0 -0 1
    outer loop
      vertex 1.08253 0.625 11.01
      vertex -1.20741 -0.323524 11.01
      vertex 1.20741 0.323524 11.01
    endloop
  endfacet
  facet normal 0 -0 1
    outer loop
      vertex 0.883883 0.883883 11.01
      vertex -1.20741 -0.323524 11.01
      vertex 1.08253 0.625 11.01
    endloop
  endfacet
  facet normal 0 -0 1
    outer loop
      vertex 0.625 1.08253 11.01
      vertex -1.20741 -0.323524 11.01
      vertex 0.883883 0.883883 11.01
    endloop
  endfacet
  facet normal 0 -0 1
    outer loop
      vertex 0.323524 1.20741 11.01
      vertex -1.20741 -0.323524 11.01
      vertex 0.625 1.08253 11.01
    endloop
  endfacet
  facet normal 0 -0 1
    outer loop
      vertex 0 1.25 11.01
      vertex -1.20741 -0.323524 11.01
      vertex 0.323524 1.20741 11.01
    endloop
  endfacet
  facet normal 0 -0 1
    outer loop
      vertex -0.323524 1.20741 11.01
      vertex -1.20741 -0.323524 11.01
      vertex 0 1.25 11.01
    endloop
  endfacet
  facet normal 0 -0 1
    outer loop
      vertex -0.625 1.08253 11.01
      vertex -1.20741 -0.323524 11.01
      vertex -0.323524 1.20741 11.01
    endloop
  endfacet
  facet normal 0 -0 1
    outer loop
      vertex -0.883883 0.883883 11.01
      vertex -1.20741 -0.323524 11.01
      vertex -0.625 1.08253 11.01
    endloop
  endfacet
  facet normal 0 -0 1
    outer loop
      vertex -1.08253 0.625 11.01
      vertex -1.20741 -0.323524 11.01
      vertex -0.883883 0.883883 11.01
    endloop
  endfacet
  facet normal 0 -0 1
    outer loop
      vertex -1.20741 0.323524 11.01
      vertex -1.20741 -0.323524 11.01
      vertex -1.08253 0.625 11.01
    endloop
  endfacet
  facet normal 0 0 1
    outer loop
      vertex -1.25 0 11.01
      vertex -1.20741 -0.323524 11.01
      vertex -1.20741 0.323524 11.01
    endloop
  endfacet
endsolid OpenSCAD_Model
